# Max2Obj Version 4.0 Mar 10th, 2001
#
# object Box03 to come ...
#
v  231.609619 82.370895 -11.162246
v  231.574738 82.370895 -10.174698
v  232.258133 82.370895 -10.891891
v  232.223251 82.370895 -9.904345
v  233.633545 82.617531 -10.389343
v  232.871765 82.370895 -9.633990
v  231.794571 93.255981 -10.991443
v  231.250702 90.893608 -10.973495
v  232.616089 92.725105 -10.655173
v  231.443558 90.893608 -10.703141
v  233.105515 92.303383 -10.504015
v  231.636398 90.893608 -10.432788
v  231.248657 85.686684 -10.778545
v  231.441513 85.686684 -10.508191
v  231.634354 85.686684 -10.237837
v  233.830032 84.343979 -10.317551
v  231.248657 86.988411 -10.778545
v  231.441513 86.988411 -10.508191
v  231.634354 86.988411 -10.237837
v  233.830032 86.317062 -10.317551
v  231.248657 88.290146 -10.778545
v  231.441513 88.290146 -10.508191
v  231.634354 88.290146 -10.237837
v  233.802872 88.333771 -10.328868
v  231.248657 89.591873 -10.778545
v  231.441513 89.591873 -10.508191
v  231.634354 89.591873 -10.237837
v  233.574966 90.561119 -10.408257
v  232.829086 82.370895 -10.185205
v  231.327667 92.926392 -10.782914
v  232.291962 93.087456 -11.378827
v  232.086899 92.661880 -10.466399
v  232.947464 92.645111 -11.105560
v  232.739609 92.440712 -10.214168
v  233.417496 83.357437 -9.972294
v  233.976151 83.357437 -10.676716
v  233.417496 85.330521 -9.972294
v  233.976151 85.330521 -10.676716
v  233.417496 87.303604 -9.972294
v  233.355438 89.376404 -9.998160
v  233.145630 91.432068 -10.075199
v  233.433151 91.614372 -10.903085
v  233.044083 82.370895 -10.604721
v  233.270386 82.617531 -10.025521
v  231.842163 93.401642 -11.566342
v  231.699875 92.818977 -10.627745
v  232.228683 92.981064 -10.810470
v  232.447296 92.515617 -10.321124
v  232.884171 92.594017 -10.562041
v  232.970230 92.168938 -10.135528
v  233.830032 83.357437 -10.317551
v  233.417496 84.343979 -9.972294
v  233.976151 84.343979 -10.676716
v  233.830032 85.330521 -10.317551
v  233.417496 86.317062 -9.972294
v  233.976151 86.317062 -10.676716
v  233.830032 87.303604 -10.317551
v  233.401978 88.315071 -9.978761
v  233.945129 88.340004 -10.689650
v  233.721436 89.451187 -10.362818
v  233.271973 90.433449 -10.030354
v  233.685287 90.603668 -10.797976
v  233.352722 91.568794 -10.454038
v  231.110397 86.988411 -10.972367
v  231.110397 89.591873 -10.972367
v  231.141418 93.466194 -11.263732
v  231.121811 92.566345 -10.708351
v  230.031235 82.370895 -11.820245
v  230.679749 82.370895 -11.549891
v  229.996368 82.370895 -10.832697
v  230.644867 82.370895 -10.562344
v  230.779297 85.686684 -11.436544
v  230.972153 85.686684 -11.166190
v  229.347855 82.370895 -11.103051
v  230.586456 85.686684 -11.706899
v  230.779297 86.988411 -11.436544
v  230.972153 86.988411 -11.166190
v  230.586456 86.988411 -11.706899
v  230.779297 88.290146 -11.436544
v  230.972153 88.290146 -11.166190
v  230.586456 88.290146 -11.706899
v  230.779297 89.591873 -11.436544
v  230.972153 89.591873 -11.166190
v  230.586456 89.591873 -11.706899
v  230.781342 90.893608 -11.631495
v  230.974197 90.893608 -11.361140
v  230.588501 90.893608 -11.901849
v  229.198380 82.370895 -12.668493
v  228.560669 82.617531 -12.934349
v  228.660767 82.617531 -12.462416
v  229.248108 82.370895 -12.187200
v  229.427658 82.370895 -11.603210
v  228.988037 82.617531 -11.810765
v  230.488266 93.255981 -11.536022
v  230.554901 92.818977 -11.105067
v  230.927109 92.926392 -10.949898
v  231.136261 93.291328 -11.117568
v  230.054153 92.981064 -11.716995
v  229.667175 92.725105 -11.884529
v  229.636093 92.794930 -12.486020
v  230.167877 92.661880 -11.266414
v  229.807831 92.515617 -11.421478
v  229.376770 92.645111 -12.594124
v  229.400391 92.594017 -12.014373
v  229.181442 92.303383 -12.139903
v  229.159912 92.348198 -12.684530
v  229.516556 92.440712 -11.557803
v  229.287140 92.168938 -11.670952
v  228.841507 83.357437 -11.879951
v  228.464981 83.357437 -12.554154
v  228.464981 84.343979 -12.554154
v  228.841507 84.343979 -11.879951
v  228.841507 85.330521 -11.879951
v  228.464981 85.330521 -12.554154
v  228.464981 86.317062 -12.554154
v  228.841507 86.317062 -11.879951
v  228.348083 85.330521 -13.022968
v  228.841507 87.303604 -11.879951
v  228.464981 87.303604 -12.554154
v  228.492126 88.333771 -12.542837
v  228.857010 88.315071 -11.873484
v  228.348083 87.303604 -13.022968
v  228.379120 88.340004 -13.010035
v  228.903549 89.376404 -11.854083
v  228.573563 89.451187 -12.508887
v  228.718948 90.561119 -12.432655
v  228.986847 90.433449 -11.816751
v  228.638962 90.603668 -12.901709
v  229.112640 91.432068 -11.756488
v  228.937927 91.568794 -12.294496
v  231.144684 82.370895 -11.356069
v  231.109802 82.370895 -10.368521
v  231.110397 85.686684 -10.972367
v  231.110397 88.290146 -10.972367
v  231.112457 90.893608 -11.167318
v  231.127380 92.767181 -10.866116
v  231.627060 82.370895 -11.656019
v  230.697189 82.370895 -12.043665
v  231.162125 82.370895 -11.849842
v  231.644485 82.370895 -12.149794
v  232.292999 82.370895 -11.879439
v  232.327881 82.370895 -12.866987
v  231.679367 82.370895 -13.137341
v  231.526794 85.686684 -12.922997
v  231.320724 85.686684 -12.818945
v  232.976395 82.370895 -12.596633
v  231.732864 85.686684 -13.027048
v  231.526794 86.988411 -12.922997
v  231.320724 86.988411 -12.818945
v  231.732864 86.988411 -13.027048
v  231.526794 88.290146 -12.922997
v  231.320724 88.290146 -12.818945
v  231.732864 88.290146 -13.027048
v  231.526794 89.591873 -12.922997
v  231.320724 89.591873 -12.818945
v  231.732864 89.591873 -13.027048
v  231.515213 90.893608 -12.732021
v  231.309143 90.893608 -12.627970
v  231.721283 90.893608 -12.836073
v  233.663483 82.617531 -11.237268
v  233.076141 82.370895 -11.512485
v  233.125854 82.370895 -11.031191
v  233.763580 82.617531 -10.765334
v  232.275558 82.370895 -11.385666
v  232.896591 82.370895 -12.096474
v  233.336197 82.617531 -11.888919
v  231.835983 93.255981 -12.163662
v  231.162125 93.592216 -11.849842
v  231.182816 93.466194 -12.435951
v  231.769348 92.818977 -12.594617
v  231.397125 92.926392 -12.749786
v  231.187988 93.291328 -12.582116
v  232.270081 92.981064 -11.982689
v  232.657059 92.725105 -11.815155
v  232.688156 92.794930 -11.213664
v  232.156372 92.661880 -12.433270
v  232.516418 92.515617 -12.278206
v  232.923843 92.594017 -11.685311
v  233.142807 92.303383 -11.559781
v  233.164322 92.348198 -11.015154
v  232.807693 92.440712 -12.141881
v  233.037109 92.168938 -12.028732
v  233.482742 83.357437 -11.819734
v  233.859268 83.357437 -11.145530
v  233.859268 84.343979 -11.145530
v  233.482742 84.343979 -11.819734
v  233.482742 85.330521 -11.819734
v  233.859268 85.330521 -11.145530
v  233.859268 86.317062 -11.145530
v  233.482742 86.317062 -11.819734
v  233.482742 87.303604 -11.819734
v  233.859268 87.303604 -11.145530
v  233.832123 88.333771 -11.156846
v  233.467224 88.315071 -11.826200
v  233.976151 87.303604 -10.676716
v  233.420700 89.376404 -11.845601
v  233.750687 89.451187 -11.190797
v  233.605301 90.561119 -11.267028
v  233.337402 90.433449 -11.882933
v  233.852066 89.476120 -10.728450
v  233.211609 91.432068 -11.943196
v  233.386322 91.568794 -11.405189
v  231.179565 82.370895 -12.343616
v  231.214447 82.370895 -13.331163
v  231.172989 85.686684 -12.744348
v  231.172989 86.988411 -12.744348
v  231.172989 88.290146 -12.744348
v  231.172989 89.591873 -12.744348
v  231.161407 90.893608 -12.553372
v  231.196869 92.767181 -12.833569
v  231.202438 92.566345 -12.991333
v  230.714630 82.370895 -12.537438
v  230.749512 82.370895 -13.524985
v  230.100998 82.370895 -13.795340
v  230.066116 82.370895 -12.807793
v  231.025253 85.686684 -12.669751
v  230.819183 85.686684 -12.565700
v  230.613113 85.686684 -12.461648
v  229.452484 82.370895 -14.065694
v  231.025253 86.988411 -12.669751
v  230.819183 86.988411 -12.565700
v  230.613113 86.988411 -12.461648
v  231.025253 88.290146 -12.669751
v  230.819183 88.290146 -12.565700
v  230.613113 88.290146 -12.461648
v  231.025253 89.591873 -12.669751
v  230.819183 89.591873 -12.565700
v  230.613113 89.591873 -12.461648
v  231.013672 90.893608 -12.478776
v  230.807602 90.893608 -12.374724
v  230.601532 90.893608 -12.270673
v  228.690704 82.617531 -13.310341
v  229.280167 82.370895 -13.094963
v  230.048676 82.370895 -12.314018
v  229.495163 82.370895 -13.514478
v  229.053848 82.617531 -13.674162
v  230.529663 93.255981 -12.708241
v  230.482086 93.401642 -12.133342
v  230.996582 92.926392 -12.916769
v  230.624374 92.818977 -13.071939
v  230.032272 93.087456 -12.320857
v  230.095566 92.981064 -12.889215
v  229.708145 92.725105 -13.044511
v  230.237335 92.661880 -13.233285
v  229.876953 92.515617 -13.378560
v  229.440063 92.594017 -13.137643
v  229.218719 92.303383 -13.195669
v  229.584641 92.440712 -13.485517
v  229.354004 92.168938 -13.564157
v  228.906754 83.357437 -13.727390
v  228.494217 83.357437 -13.382133
v  228.494217 84.343979 -13.382133
v  228.906754 84.343979 -13.727390
v  228.348083 83.357437 -13.022968
v  228.348083 84.343979 -13.022968
v  228.906754 85.330521 -13.727390
v  228.494217 85.330521 -13.382133
v  228.494217 86.317062 -13.382133
v  228.906754 86.317062 -13.727390
v  228.348083 86.317062 -13.022968
v  228.906754 87.303604 -13.727390
v  228.494217 87.303604 -13.382133
v  228.521362 88.333771 -13.370816
v  228.922272 88.315071 -13.720923
v  228.968796 89.376404 -13.701524
v  228.602798 89.451187 -13.336866
v  228.749283 90.561119 -13.291428
v  229.052277 90.433449 -13.669331
v  228.472183 89.476120 -12.971234
v  229.178619 91.432068 -13.624484
v  228.971527 91.568794 -13.245646
v  228.891083 91.614372 -12.796599
# 272 vertices

vt  0.333333 0.333333 0.000000
vt  -0.000000 0.333333 0.000000
vt  0.333333 0.666667 0.000000
vt  -0.000000 0.666667 0.000000
vt  0.333333 1.000000 0.000000
vt  -0.000000 1.000000 0.000000
vt  0.666667 0.333333 0.000000
vt  1.000000 0.333333 0.000000
vt  0.666667 0.666667 0.000000
vt  1.000000 0.666667 0.000000
vt  0.666667 1.000000 0.000000
vt  1.000000 1.000000 0.000000
vt  0.333333 0.000000 0.000000
vt  0.666667 0.000000 0.000000
vt  1.000000 0.000000 0.000000
vt  0.333333 0.200000 0.000000
vt  0.666667 0.200000 0.000000
vt  1.000000 0.200000 0.000000
vt  0.333333 0.400000 0.000000
vt  0.666667 0.400000 0.000000
vt  1.000000 0.400000 0.000000
vt  0.333333 0.600000 0.000000
vt  0.666667 0.600000 0.000000
vt  1.000000 0.600000 0.000000
vt  0.333333 0.800000 0.000000
vt  0.666667 0.800000 0.000000
vt  1.000000 0.800000 0.000000
vt  0.333333 1.000000 0.000000
vt  0.666667 1.000000 0.000000
vt  1.000000 1.000000 0.000000
vt  0.000000 0.000000 0.000000
vt  0.333333 0.000000 0.000000
vt  0.000000 0.200000 0.000000
vt  0.333333 0.200000 0.000000
vt  0.000000 0.400000 0.000000
vt  0.333333 0.400000 0.000000
vt  0.000000 0.600000 0.000000
vt  0.333333 0.600000 0.000000
vt  0.000000 0.800000 0.000000
vt  0.333333 0.800000 0.000000
vt  0.000000 1.000000 0.000000
vt  0.333333 1.000000 0.000000
vt  0.500000 0.833333 0.000000
vt  0.166667 0.833333 0.000000
vt  0.833333 0.166667 0.000000
vt  0.500000 0.500000 0.000000
vt  0.833333 0.500000 0.000000
vt  0.500000 0.833333 0.000000
vt  0.833333 0.833333 0.000000
vt  0.166667 0.100000 0.000000
vt  0.500000 0.100000 0.000000
vt  0.166667 0.300000 0.000000
vt  0.500000 0.300000 0.000000
vt  0.166667 0.500000 0.000000
vt  0.500000 0.500000 0.000000
vt  0.166667 0.700000 0.000000
vt  0.500000 0.700000 0.000000
vt  0.166667 0.900000 0.000000
vt  0.500000 0.900000 0.000000
vt  0.500000 1.000000 0.000000
vt  0.500000 0.000000 0.000000
vt  0.333333 0.833333 0.000000
vt  0.166667 1.000000 0.000000
vt  0.166667 0.000000 0.000000
vt  0.500000 0.333333 0.000000
vt  0.833333 0.333333 0.000000
vt  0.666667 0.500000 0.000000
vt  0.500000 0.666667 0.000000
vt  0.833333 0.666667 0.000000
vt  0.666667 0.833333 0.000000
vt  0.500000 1.000000 0.000000
vt  0.500000 1.000000 0.000000
vt  0.833333 1.000000 0.000000
vt  0.166667 1.000000 0.000000
vt  0.333333 0.100000 0.000000
vt  0.166667 0.200000 0.000000
vt  0.500000 0.200000 0.000000
vt  0.333333 0.300000 0.000000
vt  0.166667 0.400000 0.000000
vt  0.500000 0.400000 0.000000
vt  0.333333 0.500000 0.000000
vt  0.166667 0.600000 0.000000
vt  0.500000 0.600000 0.000000
vt  0.333333 0.700000 0.000000
vt  0.166667 0.800000 0.000000
vt  0.500000 0.800000 0.000000
vt  0.333333 0.900000 0.000000
vt  0.333333 0.094360 0.000000
vt  -0.000000 0.094360 0.000000
vt  0.094360 0.000000 0.000000
vt  0.094360 0.200000 0.000000
vt  0.094360 0.400000 0.000000
vt  0.094360 0.600000 0.000000
vt  0.094360 0.800000 0.000000
vt  0.094360 1.000000 0.000000
vt  1.000000 0.094360 0.000000
vt  0.500000 0.206938 0.000000
vt  0.666667 0.191904 0.000000
vt  0.833333 0.072333 0.000000
vt  0.727978 0.166667 0.000000
vt  0.920291 0.079709 0.000000
vt  0.333333 0.666667 0.000000
vt  0.333333 0.333333 0.000000
vt  -0.000000 0.666667 0.000000
vt  -0.000000 0.333333 0.000000
vt  0.333333 0.000000 0.000000
vt  0.666667 0.000000 0.000000
vt  0.666667 0.200000 0.000000
vt  0.333333 0.200000 0.000000
vt  1.000000 0.000000 0.000000
vt  1.000000 0.200000 0.000000
vt  0.666667 0.400000 0.000000
vt  0.333333 0.400000 0.000000
vt  1.000000 0.400000 0.000000
vt  0.666667 0.600000 0.000000
vt  0.333333 0.600000 0.000000
vt  1.000000 0.600000 0.000000
vt  0.666667 0.800000 0.000000
vt  0.333333 0.800000 0.000000
vt  1.000000 0.800000 0.000000
vt  0.666667 1.000000 0.000000
vt  0.333333 1.000000 0.000000
vt  1.000000 1.000000 0.000000
vt  0.500000 0.833333 0.000000
vt  0.500000 1.000000 0.000000
vt  0.333333 1.000000 0.000000
vt  0.333333 0.833333 0.000000
vt  0.166667 0.833333 0.000000
vt  0.166667 1.000000 0.000000
vt  -0.000000 1.000000 0.000000
vt  0.666667 0.333333 0.000000
vt  0.500000 0.333333 0.000000
vt  0.500000 0.206938 0.000000
vt  0.666667 0.191904 0.000000
vt  1.000000 0.333333 0.000000
vt  0.833333 0.333333 0.000000
vt  0.833333 0.166667 0.000000
vt  0.727978 0.166667 0.000000
vt  0.500000 0.500000 0.000000
vt  0.666667 0.500000 0.000000
vt  0.666667 0.666667 0.000000
vt  0.500000 0.666667 0.000000
vt  0.833333 0.500000 0.000000
vt  1.000000 0.666667 0.000000
vt  0.833333 0.666667 0.000000
vt  0.500000 0.833333 0.000000
vt  0.666667 0.833333 0.000000
vt  0.666667 1.000000 0.000000
vt  0.500000 1.000000 0.000000
vt  0.833333 0.833333 0.000000
vt  1.000000 1.000000 0.000000
vt  0.833333 1.000000 0.000000
vt  0.000000 0.000000 0.000000
vt  0.166667 0.000000 0.000000
vt  0.166667 0.100000 0.000000
vt  0.333333 0.000000 0.000000
vt  0.333333 0.100000 0.000000
vt  0.333333 0.200000 0.000000
vt  0.166667 0.200000 0.000000
vt  0.000000 0.200000 0.000000
vt  0.500000 0.000000 0.000000
vt  0.500000 0.100000 0.000000
vt  0.500000 0.200000 0.000000
vt  0.166667 0.300000 0.000000
vt  0.333333 0.300000 0.000000
vt  0.333333 0.400000 0.000000
vt  0.166667 0.400000 0.000000
vt  0.000000 0.400000 0.000000
vt  0.500000 0.300000 0.000000
vt  0.500000 0.400000 0.000000
vt  0.166667 0.500000 0.000000
vt  0.333333 0.500000 0.000000
vt  0.333333 0.600000 0.000000
vt  0.166667 0.600000 0.000000
vt  0.000000 0.600000 0.000000
vt  0.500000 0.500000 0.000000
vt  0.500000 0.600000 0.000000
vt  0.166667 0.700000 0.000000
vt  0.333333 0.700000 0.000000
vt  0.333333 0.800000 0.000000
vt  0.166667 0.800000 0.000000
vt  0.000000 0.800000 0.000000
vt  0.500000 0.700000 0.000000
vt  0.500000 0.800000 0.000000
vt  0.166667 0.900000 0.000000
vt  0.333333 0.900000 0.000000
vt  0.333333 1.000000 0.000000
vt  0.166667 1.000000 0.000000
vt  0.000000 1.000000 0.000000
vt  0.500000 0.900000 0.000000
vt  0.500000 1.000000 0.000000
vt  0.333333 0.094360 0.000000
vt  -0.000000 0.094360 0.000000
vt  0.094360 0.000000 0.000000
vt  0.094360 0.200000 0.000000
vt  0.094360 0.400000 0.000000
vt  0.094360 0.600000 0.000000
vt  0.094360 0.800000 0.000000
vt  0.094360 1.000000 0.000000
vt  0.833333 0.072333 0.000000
vt  1.000000 0.094360 0.000000
vt  0.920291 0.079709 0.000000
vt  0.500000 0.333333 0.000000
vt  0.500000 0.666667 0.000000
vt  0.500000 0.666667 0.000000
vt  0.500000 0.333333 0.000000
vt  0.500000 0.094360 0.000000
vt  0.500000 0.094360 0.000000
vt  0.333333 0.333333 0.000000
vt  0.333333 0.666667 0.000000
vt  -0.000000 0.666667 0.000000
vt  -0.000000 0.333333 0.000000
vt  0.333333 0.000000 0.000000
vt  0.666667 0.000000 0.000000
vt  0.666667 0.200000 0.000000
vt  0.333333 0.200000 0.000000
vt  1.000000 0.000000 0.000000
vt  1.000000 0.200000 0.000000
vt  0.666667 0.400000 0.000000
vt  0.333333 0.400000 0.000000
vt  1.000000 0.400000 0.000000
vt  0.666667 0.600000 0.000000
vt  0.333333 0.600000 0.000000
vt  1.000000 0.600000 0.000000
vt  0.666667 0.800000 0.000000
vt  0.333333 0.800000 0.000000
vt  1.000000 0.800000 0.000000
vt  0.666667 1.000000 0.000000
vt  0.333333 1.000000 0.000000
vt  1.000000 1.000000 0.000000
vt  0.333333 1.000000 0.000000
vt  0.333333 0.833333 0.000000
vt  0.500000 0.833333 0.000000
vt  0.500000 1.000000 0.000000
vt  0.500000 0.666667 0.000000
vt  0.166667 0.833333 0.000000
vt  0.166667 1.000000 0.000000
vt  -0.000000 1.000000 0.000000
vt  0.666667 0.333333 0.000000
vt  0.500000 0.333333 0.000000
vt  0.500000 0.206938 0.000000
vt  0.666667 0.191904 0.000000
vt  1.000000 0.333333 0.000000
vt  0.833333 0.333333 0.000000
vt  0.833333 0.166667 0.000000
vt  0.727978 0.166667 0.000000
vt  0.666667 0.500000 0.000000
vt  0.500000 0.500000 0.000000
vt  0.666667 0.666667 0.000000
vt  0.500000 0.666667 0.000000
vt  0.833333 0.500000 0.000000
vt  1.000000 0.666667 0.000000
vt  0.833333 0.666667 0.000000
vt  0.666667 0.833333 0.000000
vt  0.500000 0.833333 0.000000
vt  0.666667 1.000000 0.000000
vt  0.500000 1.000000 0.000000
vt  0.833333 0.833333 0.000000
vt  1.000000 1.000000 0.000000
vt  0.833333 1.000000 0.000000
vt  0.000000 0.000000 0.000000
vt  0.166667 0.000000 0.000000
vt  0.166667 0.100000 0.000000
vt  0.333333 0.000000 0.000000
vt  0.333333 0.100000 0.000000
vt  0.333333 0.200000 0.000000
vt  0.166667 0.200000 0.000000
vt  0.000000 0.200000 0.000000
vt  0.500000 0.000000 0.000000
vt  0.500000 0.100000 0.000000
vt  0.500000 0.200000 0.000000
vt  0.166667 0.300000 0.000000
vt  0.333333 0.300000 0.000000
vt  0.333333 0.400000 0.000000
vt  0.166667 0.400000 0.000000
vt  0.000000 0.400000 0.000000
vt  0.500000 0.300000 0.000000
vt  0.500000 0.400000 0.000000
vt  0.166667 0.500000 0.000000
vt  0.333333 0.500000 0.000000
vt  0.333333 0.600000 0.000000
vt  0.166667 0.600000 0.000000
vt  0.000000 0.600000 0.000000
vt  0.500000 0.500000 0.000000
vt  0.500000 0.600000 0.000000
vt  0.166667 0.700000 0.000000
vt  0.333333 0.700000 0.000000
vt  0.333333 0.800000 0.000000
vt  0.166667 0.800000 0.000000
vt  0.000000 0.800000 0.000000
vt  0.500000 0.700000 0.000000
vt  0.500000 0.800000 0.000000
vt  0.166667 0.900000 0.000000
vt  0.333333 0.900000 0.000000
vt  0.333333 1.000000 0.000000
vt  0.166667 1.000000 0.000000
vt  0.000000 1.000000 0.000000
vt  0.500000 0.900000 0.000000
vt  0.500000 1.000000 0.000000
vt  0.333333 0.094360 0.000000
vt  -0.000000 0.094360 0.000000
vt  0.094360 0.000000 0.000000
vt  0.094360 0.200000 0.000000
vt  0.094360 0.400000 0.000000
vt  0.094360 0.600000 0.000000
vt  0.094360 0.800000 0.000000
vt  0.094360 1.000000 0.000000
vt  0.833333 0.072333 0.000000
vt  1.000000 0.094360 0.000000
vt  0.920291 0.079709 0.000000
vt  0.333333 0.333333 0.000000
vt  -0.000000 0.333333 0.000000
vt  -0.000000 0.666667 0.000000
vt  0.333333 0.666667 0.000000
vt  0.333333 0.000000 0.000000
vt  0.333333 0.200000 0.000000
vt  0.666667 0.200000 0.000000
vt  0.666667 0.000000 0.000000
vt  1.000000 0.200000 0.000000
vt  1.000000 0.000000 0.000000
vt  0.333333 0.400000 0.000000
vt  0.666667 0.400000 0.000000
vt  1.000000 0.400000 0.000000
vt  0.333333 0.600000 0.000000
vt  0.666667 0.600000 0.000000
vt  1.000000 0.600000 0.000000
vt  0.333333 0.800000 0.000000
vt  0.666667 0.800000 0.000000
vt  1.000000 0.800000 0.000000
vt  0.333333 1.000000 0.000000
vt  0.666667 1.000000 0.000000
vt  1.000000 1.000000 0.000000
vt  0.333333 1.000000 0.000000
vt  0.500000 1.000000 0.000000
vt  0.500000 0.833333 0.000000
vt  0.333333 0.833333 0.000000
vt  0.500000 0.666667 0.000000
vt  0.166667 0.833333 0.000000
vt  0.166667 1.000000 0.000000
vt  -0.000000 1.000000 0.000000
vt  0.666667 0.333333 0.000000
vt  0.666667 0.191904 0.000000
vt  0.500000 0.206938 0.000000
vt  0.500000 0.333333 0.000000
vt  1.000000 0.333333 0.000000
vt  0.833333 0.166667 0.000000
vt  0.833333 0.333333 0.000000
vt  0.727978 0.166667 0.000000
vt  0.500000 0.500000 0.000000
vt  0.666667 0.500000 0.000000
vt  0.666667 0.666667 0.000000
vt  0.500000 0.666667 0.000000
vt  0.833333 0.500000 0.000000
vt  1.000000 0.666667 0.000000
vt  0.833333 0.666667 0.000000
vt  0.500000 0.833333 0.000000
vt  0.666667 0.833333 0.000000
vt  0.666667 1.000000 0.000000
vt  0.500000 1.000000 0.000000
vt  0.833333 0.833333 0.000000
vt  1.000000 1.000000 0.000000
vt  0.833333 1.000000 0.000000
vt  0.000000 0.000000 0.000000
vt  0.166667 0.100000 0.000000
vt  0.166667 0.000000 0.000000
vt  0.333333 0.000000 0.000000
vt  0.333333 0.100000 0.000000
vt  0.333333 0.200000 0.000000
vt  0.166667 0.200000 0.000000
vt  0.000000 0.200000 0.000000
vt  0.500000 0.100000 0.000000
vt  0.500000 0.000000 0.000000
vt  0.500000 0.200000 0.000000
vt  0.166667 0.300000 0.000000
vt  0.333333 0.300000 0.000000
vt  0.333333 0.400000 0.000000
vt  0.166667 0.400000 0.000000
vt  0.000000 0.400000 0.000000
vt  0.500000 0.300000 0.000000
vt  0.500000 0.400000 0.000000
vt  0.166667 0.500000 0.000000
vt  0.333333 0.500000 0.000000
vt  0.333333 0.600000 0.000000
vt  0.166667 0.600000 0.000000
vt  0.000000 0.600000 0.000000
vt  0.500000 0.500000 0.000000
vt  0.500000 0.600000 0.000000
vt  0.166667 0.700000 0.000000
vt  0.333333 0.700000 0.000000
vt  0.333333 0.800000 0.000000
vt  0.166667 0.800000 0.000000
vt  0.000000 0.800000 0.000000
vt  0.500000 0.700000 0.000000
vt  0.500000 0.800000 0.000000
vt  0.166667 0.900000 0.000000
vt  0.333333 0.900000 0.000000
vt  0.333333 1.000000 0.000000
vt  0.166667 1.000000 0.000000
vt  0.000000 1.000000 0.000000
vt  0.500000 0.900000 0.000000
vt  0.500000 1.000000 0.000000
vt  0.333333 0.094360 0.000000
vt  -0.000000 0.094360 0.000000
vt  0.094360 0.000000 0.000000
vt  0.094360 0.200000 0.000000
vt  0.094360 0.400000 0.000000
vt  0.094360 0.600000 0.000000
vt  0.094360 0.800000 0.000000
vt  0.094360 1.000000 0.000000
vt  0.833333 0.072333 0.000000
vt  1.000000 0.094360 0.000000
vt  0.920291 0.079709 0.000000
vt  0.500000 0.333333 0.000000
vt  0.500000 0.094360 0.000000
vt  0.500000 0.333333 0.000000
vt  0.500000 0.094360 0.000000
# 416 texture vertices

vn  0.000000 -0.199199 0.000000
vn  0.000000 -0.312902 0.000000
vn  0.000000 -0.199199 0.000000
vn  0.000000 -0.312902 0.000000
vn  0.112129 -0.406350 2.946356
vn  -0.067266 0.000858 1.904547
vn  -0.012751 0.057248 1.447678
vn  -0.132794 0.005864 2.331085
vn  0.009033 0.074311 1.380065
vn  -0.266587 0.011773 4.679698
vn  0.176276 0.181138 4.124797
vn  -0.133793 0.005909 2.348613
vn  -0.084872 0.000546 1.489852
vn  -0.084058 -0.000458 1.490985
vn  -0.288308 -0.006201 5.154015
vn  0.019962 0.000000 1.472125
vn  -0.084872 0.000000 1.489858
vn  -0.084872 0.000000 1.489858
vn  -0.266634 0.000000 4.680527
vn  0.019962 0.000000 1.472125
vn  -0.084872 0.000000 1.489858
vn  -0.084872 0.000000 1.489858
vn  -0.266634 0.000000 4.680527
vn  0.022368 0.002728 1.467960
vn  -0.084869 0.001874 1.489792
vn  -0.084869 0.001874 1.489792
vn  -0.266111 0.005864 4.671349
vn  0.040840 0.011390 1.429332
vn  0.023985 -0.197909 0.047476
vn  -0.053283 0.012304 1.515146
vn  0.137100 0.159101 0.057155
vn  -0.044350 0.013162 1.517213
vn  0.156252 0.144978 0.065139
vn  -0.027747 0.023200 1.508758
vn  -0.019704 -0.000425 1.515512
vn  0.226549 -0.021214 0.094445
vn  -0.026934 -0.000000 1.518762
vn  0.227845 0.000000 0.094985
vn  -0.026781 0.000220 1.518707
vn  -0.024078 0.001813 1.517590
vn  -0.014811 0.006535 1.511689
vn  0.221269 0.047512 0.092244
vn  0.022909 -0.177305 0.642461
vn  0.016219 -0.183854 3.532646
vn  0.105491 0.176563 0.043977
vn  -0.048611 0.010557 1.517512
vn  0.002426 0.061002 1.424589
vn  -0.044075 0.018431 1.514040
vn  0.045787 0.081035 1.287985
vn  -0.075335 0.050837 4.612883
vn  0.021926 -0.007354 1.467825
vn  -0.026935 0.000000 1.518762
vn  0.227845 0.000000 0.094985
vn  0.019962 0.000000 1.472125
vn  -0.026935 0.000000 1.518762
vn  0.227845 0.000000 0.094985
vn  0.020164 0.000718 1.471783
vn  -0.026124 0.000608 1.518463
vn  0.227572 0.009741 0.094871
vn  0.027671 0.005862 1.458013
vn  -0.020158 0.002345 1.515658
vn  0.224226 0.035364 0.093476
vn  0.068922 0.022494 1.347691
vn  -0.084872 0.000000 1.489858
vn  -0.084869 0.001874 1.489792
vn  -0.050053 0.071374 1.417165
vn  -0.052459 -0.003001 1.518237
vn  0.000000 -0.199199 0.000000
vn  0.000000 -0.199199 0.000000
vn  0.000000 -0.312902 0.000000
vn  0.000000 -0.312902 0.000000
vn  -0.084030 0.004976 1.490525
vn  -0.084856 0.003950 1.489565
vn  -0.067740 0.010997 1.917960
vn  -0.286613 0.022974 5.124545
vn  -0.084872 0.000000 1.489858
vn  -0.084872 0.000000 1.489858
vn  -0.266634 0.000000 4.680527
vn  -0.084872 0.000000 1.489858
vn  -0.084872 0.000000 1.489858
vn  -0.266634 0.000000 4.680527
vn  -0.084869 0.001874 1.489792
vn  -0.084869 0.001874 1.489792
vn  -0.267110 0.005909 4.688876
vn  -0.266587 0.011773 4.679698
vn  -0.133793 0.005909 2.348613
vn  -0.132794 0.005864 2.331085
vn  -0.072611 -0.188813 -0.030270
vn  -0.068190 -0.094543 0.556337
vn  -0.313979 -0.406350 2.768716
vn  -0.066968 -0.177305 0.604993
vn  -0.026594 -0.197909 0.026390
vn  -0.261665 -0.183854 3.416801
vn  -0.088396 0.057248 1.416144
vn  -0.057735 0.008914 1.514429
vn  -0.054127 0.011605 1.515115
vn  -0.053330 0.020415 1.509958
vn  -0.101525 0.061002 1.381253
vn  -0.104841 0.074311 1.332593
vn  -0.136910 0.159226 -0.057076
vn  -0.062038 0.010022 1.511406
vn  -0.060800 0.013905 1.510394
vn  -0.156252 0.144978 -0.065139
vn  -0.134118 0.081035 1.212986
vn  -0.458298 0.181138 3.860254
vn  -0.329132 0.151046 1.545547
vn  -0.075786 0.019034 1.493969
vn  -0.222769 0.033927 4.577212
vn  -0.080938 0.001178 1.495085
vn  -0.123469 -0.007354 1.407212
vn  -0.121861 0.000000 1.413001
vn  -0.069871 -0.000000 1.507178
vn  -0.069871 0.000000 1.507178
vn  -0.121861 0.000000 1.413001
vn  -0.121861 0.000000 1.413001
vn  -0.069871 -0.000000 1.507178
vn  -0.227845 0.000000 -0.094985
vn  -0.070033 0.000184 1.507029
vn  -0.122033 0.000718 1.412503
vn  -0.123908 0.002728 1.406980
vn  -0.070643 0.000384 1.506461
vn  -0.227830 0.002304 -0.094979
vn  -0.227572 0.009741 -0.094871
vn  -0.072386 0.001443 1.504741
vn  -0.128364 0.005862 1.392965
vn  -0.139154 0.011390 1.354295
vn  -0.076163 0.001502 1.500760
vn  -0.224226 0.035364 -0.093476
vn  -0.080722 0.005228 1.494837
vn  -0.160738 0.022494 1.251950
vn  0.000000 -0.199199 0.000000
vn  0.000000 -0.312902 0.000000
vn  -0.083685 0.002266 1.491395
vn  -0.084872 0.000000 1.489858
vn  -0.132794 0.005864 2.331085
vn  -0.053385 0.018321 1.511517
vn  0.000000 -0.199199 0.000000
vn  0.000000 -0.199199 0.000000
vn  0.000000 -0.199199 0.000000
vn  0.000000 -0.199199 0.000000
vn  0.000000 -0.199199 0.000000
vn  0.000000 -0.312902 0.000000
vn  0.000000 -0.312902 0.000000
vn  0.022173 -0.000458 -1.516783
vn  0.021304 0.000546 -1.516353
vn  0.067266 0.000858 -1.904547
vn  0.078844 -0.006201 -5.241337
vn  0.021304 0.000000 -1.516359
vn  0.021304 0.000000 -1.516359
vn  0.066927 0.000000 -4.763782
vn  0.021304 0.000000 -1.516359
vn  0.021304 0.000000 -1.516359
vn  0.066927 0.000000 -4.763782
vn  0.021303 0.001874 -1.516292
vn  0.021303 0.001874 -1.516292
vn  0.066796 0.005864 -4.754440
vn  0.066916 0.011773 -4.762938
vn  0.033332 0.005864 -2.372549
vn  0.033583 0.005909 -2.390388
vn  0.313979 -0.406350 -2.768718
vn  0.066968 -0.177305 -0.604992
vn  0.072611 -0.188813 0.030270
vn  0.027483 -0.094543 0.596221
vn  0.000000 -0.199199 0.000000
vn  0.026594 -0.197909 -0.026390
vn  0.261665 -0.183854 -3.416800
vn  0.088396 0.057248 -1.416144
vn  -0.000000 0.199199 0.000000
vn  0.050053 0.071374 -1.417165
vn  0.058437 0.010557 -1.513416
vn  0.053737 0.012304 -1.514957
vn  0.053330 0.020415 -1.509958
vn  0.101525 0.061002 -1.381253
vn  0.104841 0.074311 -1.332593
vn  0.136910 0.159226 0.057076
vn  0.062554 0.013162 -1.509624
vn  0.062601 0.018431 -1.506317
vn  0.134118 0.081035 -1.212986
vn  0.458298 0.181138 -3.860253
vn  0.211991 0.151046 1.771133
vn  0.078087 0.023200 -1.487772
vn  0.247966 0.050837 -4.540915
vn  0.086367 -0.000425 -1.487721
vn  0.123469 -0.007354 -1.407212
vn  0.121861 0.000000 -1.413001
vn  0.079572 0.000000 -1.496818
vn  0.079572 -0.000000 -1.496818
vn  0.121861 0.000000 -1.413001
vn  0.121861 0.000000 -1.413001
vn  0.079572 0.000000 -1.496818
vn  0.079717 0.000220 -1.496639
vn  0.122033 0.000718 -1.412503
vn  0.123908 0.002728 -1.406980
vn  0.080338 0.000608 -1.495862
vn  0.227830 0.002304 0.094979
vn  0.082264 0.001813 -1.493333
vn  0.128364 0.005862 -1.392965
vn  0.139154 0.011390 -1.354295
vn  0.085936 0.002345 -1.488235
vn  0.226918 0.017945 0.094599
vn  0.090851 0.006535 -1.479989
vn  0.160738 0.022494 -1.251950
vn  0.000000 -0.199199 0.000000
vn  0.000000 -0.312902 0.000000
vn  0.022564 0.002266 -1.516876
vn  0.021304 0.000000 -1.516359
vn  0.021304 0.000000 -1.516359
vn  0.021303 0.001874 -1.516292
vn  0.033332 0.005864 -2.372549
vn  0.053385 0.018321 -1.511517
vn  0.054752 -0.003001 -1.517281
vn  0.000000 -0.199199 0.000000
vn  0.000000 -0.312902 0.000000
vn  0.000000 -0.312902 0.000000
vn  0.000000 -0.199199 0.000000
vn  0.021299 0.003950 -1.516061
vn  0.022168 0.004976 -1.516315
vn  0.078438 0.022974 -5.211330
vn  0.067740 0.010997 -1.917960
vn  0.021304 0.000000 -1.516359
vn  0.021304 0.000000 -1.516359
vn  0.066927 0.000000 -4.763782
vn  0.021304 0.000000 -1.516359
vn  0.021304 0.000000 -1.516359
vn  0.066927 0.000000 -4.763782
vn  0.021303 0.001874 -1.516292
vn  0.021303 0.001874 -1.516292
vn  0.067047 0.005909 -4.772279
vn  0.033583 0.005909 -2.390389
vn  0.066916 0.011773 -4.762938
vn  0.033332 0.005864 -2.372549
vn  -0.112129 -0.406350 -2.946354
vn  -0.022909 -0.177305 -0.642461
vn  0.000000 -0.199199 0.000000
vn  -0.023985 -0.197909 -0.047476
vn  -0.016219 -0.183854 -3.532646
vn  0.012751 0.057248 -1.447678
vn  -0.105491 0.176563 -0.043978
vn  0.052915 0.011605 -1.515620
vn  0.049364 0.008914 -1.517918
vn  -0.137100 0.159101 -0.057155
vn  -0.002426 0.061002 -1.424588
vn  -0.009033 0.074311 -1.380065
vn  0.044975 0.010022 -1.518519
vn  0.046107 0.013905 -1.516519
vn  -0.045787 0.081035 -1.287985
vn  -0.176276 0.181138 -4.124797
vn  0.030413 0.019034 -1.512884
vn  0.102328 0.033927 -4.627422
vn  0.025487 0.001178 -1.518202
vn  -0.021926 -0.007354 -1.467825
vn  -0.019962 0.000000 -1.472125
vn  0.037075 -0.000000 -1.520850
vn  -0.226549 -0.021214 -0.094445
vn  -0.227845 0.000000 -0.094985
vn  0.037075 0.000000 -1.520850
vn  -0.019962 0.000000 -1.472125
vn  -0.019962 0.000000 -1.472125
vn  0.037075 -0.000000 -1.520850
vn  -0.227845 0.000000 -0.094985
vn  0.036908 0.000184 -1.520839
vn  -0.020164 0.000718 -1.471783
vn  -0.022368 0.002728 -1.467960
vn  0.036275 0.000384 -1.520788
vn  0.034464 0.001443 -1.520550
vn  -0.027671 0.005862 -1.458013
vn  -0.040840 0.011390 -1.429332
vn  0.030520 0.001502 -1.519788
vn  -0.226918 0.017945 -0.094599
vn  0.025680 0.005228 -1.517783
vn  -0.068922 0.022494 -1.347691
vn  -0.221269 0.047512 -0.092244
# 272 vertex normals

g Box03
s 2
f 1/1/1 3/3/3 4/4/4
f 4/4/4 2/2/2 1/1/1
s 16
f 2/13/2 4/14/4 14/17/14
f 14/17/14 13/16/13 2/13/2
f 4/14/4 6/15/6 15/18/15
f 15/18/15 14/17/14 4/14/4
f 13/16/13 14/17/14 18/20/18
f 18/20/18 17/19/17 13/16/13
f 14/17/14 15/18/15 19/21/19
f 19/21/19 18/20/18 14/17/14
f 17/19/17 18/20/18 22/23/22
f 22/23/22 21/22/21 17/19/17
f 18/20/18 19/21/19 23/24/23
f 23/24/23 22/23/22 18/20/18
f 21/22/21 22/23/22 26/26/26
f 26/26/26 25/25/25 21/22/21
f 22/23/22 23/24/23 27/27/27
f 27/27/27 26/26/26 22/23/22
f 25/25/25 26/26/26 10/29/10
f 10/29/10 8/28/8 25/25/25
f 26/26/26 27/27/27 12/30/12
f 12/30/12 10/29/10 26/26/26
s 2
f 5/5/5 43/62/43 162/43/162
f 162/43/162 163/60/163 5/5/5
f 3/3/3 164/204/164 162/43/162
f 43/62/43 3/3/3 162/43/162
f 3/3/3 43/62/43 29/44/29
f 5/5/5 44/63/44 29/44/29
f 29/44/29 43/62/43 5/5/5
f 6/6/6 4/4/4 29/44/29
f 44/63/44 6/6/6 29/44/29
f 4/4/4 3/3/3 29/44/29
s 4
f 45/65/45 168/97/168 66/98/66
f 66/98/66 7/7/7 45/65/45
f 8/8/8 46/66/46 30/45/30
f 66/98/66 97/100/97 30/45/30
f 7/7/7 66/98/66 30/45/30
f 7/7/7 30/45/30 46/66/46
f 7/7/7 47/67/47 31/46/31
f 31/46/31 45/65/45 7/7/7
f 9/9/9 175/68/175 31/46/31
f 31/46/31 47/67/47 9/9/9
f 7/7/7 46/66/46 32/47/32
f 32/47/32 47/67/47 7/7/7
f 8/8/8 10/10/10 32/47/32
f 46/66/46 8/8/8 32/47/32
f 10/10/10 48/69/48 32/47/32
f 9/9/9 47/67/47 32/47/32
f 32/47/32 48/69/48 9/9/9
f 9/9/9 49/70/49 33/48/33
f 33/48/33 175/68/175 9/9/9
f 11/11/11 180/71/180 33/48/33
f 33/48/33 49/70/49 11/11/11
f 9/9/9 48/69/48 34/49/34
f 34/49/34 49/70/49 9/9/9
f 10/10/10 12/12/12 34/49/34
f 48/69/48 10/10/10 34/49/34
f 12/12/12 50/73/50 34/49/34
f 11/11/11 49/70/49 34/49/34
f 34/49/34 50/73/50 11/11/11
s 32
f 6/31/6 44/64/44 35/50/35
f 5/32/5 51/75/51 35/50/35
f 35/50/35 44/64/44 5/32/5
f 16/34/16 52/76/52 35/50/35
f 35/50/35 51/75/51 16/34/16
f 15/33/15 6/31/6 35/50/35
f 52/76/52 15/33/15 35/50/35
f 5/32/5 163/61/163 36/51/36
f 36/51/36 51/75/51 5/32/5
f 16/34/16 51/75/51 36/51/36
f 36/51/36 53/77/53 16/34/16
f 15/33/15 52/76/52 37/52/37
f 16/34/16 54/78/54 37/52/37
f 37/52/37 52/76/52 16/34/16
f 20/36/20 55/79/55 37/52/37
f 37/52/37 54/78/54 20/36/20
f 19/35/19 15/33/15 37/52/37
f 55/79/55 19/35/19 37/52/37
f 16/34/16 53/77/53 38/53/38
f 38/53/38 54/78/54 16/34/16
f 20/36/20 54/78/54 38/53/38
f 38/53/38 56/80/56 20/36/20
f 19/35/19 55/79/55 39/54/39
f 20/36/20 57/81/57 39/54/39
f 39/54/39 55/79/55 20/36/20
f 24/38/24 58/82/58 39/54/39
f 39/54/39 57/81/57 24/38/24
f 23/37/23 19/35/19 39/54/39
f 58/82/58 23/37/23 39/54/39
f 20/36/20 56/80/56 195/55/195
f 195/55/195 57/81/57 20/36/20
f 24/38/24 57/81/57 195/55/195
f 195/55/195 59/83/59 24/38/24
f 23/37/23 58/82/58 40/56/40
f 24/38/24 60/84/60 40/56/40
f 40/56/40 58/82/58 24/38/24
f 28/40/28 61/85/61 40/56/40
f 40/56/40 60/84/60 28/40/28
f 27/39/27 23/37/23 40/56/40
f 61/85/61 27/39/27 40/56/40
f 24/38/24 59/83/59 200/57/200
f 200/57/200 60/84/60 24/38/24
f 28/40/28 60/84/60 200/57/200
f 200/57/200 62/86/62 28/40/28
f 27/39/27 61/85/61 41/58/41
f 28/40/28 63/87/63 41/58/41
f 41/58/41 61/85/61 28/40/28
f 11/42/11 50/74/50 41/58/41
f 41/58/41 63/87/63 11/42/11
f 12/41/12 27/39/27 41/58/41
f 50/74/50 12/41/12 41/58/41
f 28/40/28 62/86/62 42/59/42
f 42/59/42 63/87/63 28/40/28
f 11/42/11 63/87/63 42/59/42
f 42/59/42 180/72/180 11/42/11
s 2
f 1/1/1 2/2/2 132/89/132
f 132/89/132 131/88/131 1/1/1
s 16
f 2/13/2 13/16/13 133/91/133
f 133/91/133 132/90/132 2/13/2
f 13/16/13 17/19/17 64/92/64
f 64/92/64 133/91/133 13/16/13
f 17/19/17 21/22/21 134/93/134
f 134/93/134 64/92/64 17/19/17
f 21/22/21 25/25/25 65/94/65
f 65/94/65 134/93/134 21/22/21
f 25/25/25 8/28/8 135/95/135
f 135/95/135 65/94/65 25/25/25
s 4
f 136/99/136 30/45/30 97/100/97
f 135/96/135 8/8/8 30/45/30
f 30/45/30 67/101/67 135/96/135
f 67/101/67 30/45/30 136/99/136
s 2
f 69/103/69 71/105/71 70/104/70
f 70/104/70 68/102/68 69/103/69
s 16
f 71/106/71 73/109/73 72/108/72
f 72/108/72 70/107/70 71/106/71
f 70/107/70 72/108/72 75/111/75
f 75/111/75 74/110/74 70/107/70
f 73/109/73 77/113/77 76/112/76
f 76/112/76 72/108/72 73/109/73
f 72/108/72 76/112/76 78/114/78
f 78/114/78 75/111/75 72/108/72
f 77/113/77 80/116/80 79/115/79
f 79/115/79 76/112/76 77/113/77
f 76/112/76 79/115/79 81/117/81
f 81/117/81 78/114/78 76/112/76
f 80/116/80 83/119/83 82/118/82
f 82/118/82 79/115/79 80/116/80
f 79/115/79 82/118/82 84/120/84
f 84/120/84 81/117/81 79/115/79
f 83/119/83 86/122/86 85/121/85
f 85/121/85 82/118/82 83/119/83
f 82/118/82 85/121/85 87/123/87
f 87/123/87 84/120/84 82/118/82
s 2
f 90/126/90 89/125/89 88/124/88
f 88/124/88 91/127/91 90/126/90
f 68/102/68 88/124/88 234/205/234
f 91/127/91 88/124/88 68/102/68
f 68/102/68 92/128/92 91/127/91
f 90/126/90 91/127/91 92/128/92
f 92/128/92 93/129/93 90/126/90
f 74/130/74 92/128/92 70/104/70
f 93/129/93 92/128/92 74/130/74
f 70/104/70 92/128/92 68/102/68
s 4
f 238/132/238 94/131/94 66/134/66
f 66/134/66 168/133/168 238/132/238
f 86/135/86 96/137/96 95/136/95
f 94/131/94 95/136/95 96/137/96
f 96/137/96 97/138/97 66/134/66
f 94/131/94 96/137/96 66/134/66
f 94/131/94 238/132/238 241/139/241
f 241/139/241 98/140/98 94/131/94
f 99/141/99 98/140/98 241/139/241
f 241/139/241 100/142/100 99/141/99
f 94/131/94 98/140/98 101/143/101
f 101/143/101 95/136/95 94/131/94
f 86/135/86 101/143/101 85/144/85
f 95/136/95 101/143/101 86/135/86
f 85/144/85 101/143/101 102/145/102
f 99/141/99 102/145/102 101/143/101
f 101/143/101 98/140/98 99/141/99
f 99/141/99 100/142/100 103/146/103
f 103/146/103 104/147/104 99/141/99
f 105/148/105 104/147/104 103/146/103
f 103/146/103 106/149/106 105/148/105
f 99/141/99 104/147/104 107/150/107
f 107/150/107 102/145/102 99/141/99
f 85/144/85 107/150/107 87/151/87
f 102/145/102 107/150/107 85/144/85
f 87/151/87 107/150/107 108/152/108
f 105/148/105 108/152/108 107/150/107
f 107/150/107 104/147/104 105/148/105
s 32
f 74/153/74 109/155/109 93/154/93
f 90/156/90 93/154/93 109/155/109
f 109/155/109 110/157/110 90/156/90
f 111/158/111 110/157/110 109/155/109
f 109/155/109 112/159/112 111/158/111
f 75/160/75 109/155/109 74/153/74
f 112/159/112 109/155/109 75/160/75
f 90/156/90 110/157/110 254/162/254
f 254/162/254 89/161/89 90/156/90
f 111/158/111 255/163/255 254/162/254
f 254/162/254 110/157/110 111/158/111
f 75/160/75 113/164/113 112/159/112
f 111/158/111 112/159/112 113/164/113
f 113/164/113 114/165/114 111/158/111
f 115/166/115 114/165/114 113/164/113
f 113/164/113 116/167/116 115/166/115
f 78/168/78 113/164/113 75/160/75
f 116/167/116 113/164/113 78/168/78
f 111/158/111 114/165/114 117/169/117
f 117/169/117 255/163/255 111/158/111
f 115/166/115 260/170/260 117/169/117
f 117/169/117 114/165/114 115/166/115
f 78/168/78 118/171/118 116/167/116
f 115/166/115 116/167/116 118/171/118
f 118/171/118 119/172/119 115/166/115
f 120/173/120 119/172/119 118/171/118
f 118/171/118 121/174/121 120/173/120
f 81/175/81 118/171/118 78/168/78
f 121/174/121 118/171/118 81/175/81
f 115/166/115 119/172/119 122/176/122
f 122/176/122 260/170/260 115/166/115
f 120/173/120 123/177/123 122/176/122
f 122/176/122 119/172/119 120/173/120
f 81/175/81 124/178/124 121/174/121
f 120/173/120 121/174/121 124/178/124
f 124/178/124 125/179/125 120/173/120
f 126/180/126 125/179/125 124/178/124
f 124/178/124 127/181/127 126/180/126
f 84/182/84 124/178/124 81/175/81
f 127/181/127 124/178/124 84/182/84
f 120/173/120 125/179/125 269/183/269
f 269/183/269 123/177/123 120/173/120
f 126/180/126 128/184/128 269/183/269
f 269/183/269 125/179/125 126/180/126
f 84/182/84 129/185/129 127/181/127
f 126/180/126 127/181/127 129/185/129
f 129/185/129 130/186/130 126/180/126
f 105/187/105 130/186/130 129/185/129
f 129/185/129 108/188/108 105/187/105
f 87/189/87 129/185/129 84/182/84
f 108/188/108 129/185/129 87/189/87
f 126/180/126 130/186/130 272/190/272
f 272/190/272 128/184/128 126/180/126
f 105/187/105 106/191/106 272/190/272
f 272/190/272 130/186/130 105/187/105
s 2
f 69/103/69 131/192/131 132/193/132
f 132/193/132 71/105/71 69/103/69
s 16
f 71/106/71 132/194/132 133/195/133
f 133/195/133 73/109/73 71/106/71
f 73/109/73 133/195/133 64/196/64
f 64/196/64 77/113/77 73/109/73
f 77/113/77 64/196/64 134/197/134
f 134/197/134 80/116/80 77/113/77
f 80/116/80 134/197/134 65/198/65
f 65/198/65 83/119/83 80/116/80
f 83/119/83 65/198/65 135/199/135
f 135/199/135 86/122/86 83/119/83
s 4
f 136/200/136 97/138/97 96/137/96
f 135/201/135 67/202/67 96/137/96
f 96/137/96 86/135/86 135/201/135
f 67/202/67 136/200/136 96/137/96
s 2
f 3/3/3 1/1/1 137/203/137
f 137/203/137 164/204/164 3/3/3
f 1/1/1 131/88/131 139/208/139
f 139/208/139 137/203/137 1/1/1
f 69/103/69 68/102/68 234/205/234
f 234/205/234 138/206/138 69/103/69
f 131/192/131 69/103/69 138/206/138
f 138/206/138 139/207/139 131/192/131
f 140/209/140 143/212/143 142/211/142
f 142/211/142 141/210/141 140/209/140
s 16
f 143/213/143 145/216/145 144/215/144
f 144/215/144 142/214/142 143/213/143
f 142/214/142 144/215/144 147/218/147
f 147/218/147 146/217/146 142/214/142
f 145/216/145 149/220/149 148/219/148
f 148/219/148 144/215/144 145/216/145
f 144/215/144 148/219/148 150/221/150
f 150/221/150 147/218/147 144/215/144
f 149/220/149 152/223/152 151/222/151
f 151/222/151 148/219/148 149/220/149
f 148/219/148 151/222/151 153/224/153
f 153/224/153 150/221/150 148/219/148
f 152/223/152 155/226/155 154/225/154
f 154/225/154 151/222/151 152/223/152
f 151/222/151 154/225/154 156/227/156
f 156/227/156 153/224/153 151/222/151
f 155/226/155 158/229/158 157/228/157
f 157/228/157 154/225/154 155/226/155
f 154/225/154 157/228/157 159/230/159
f 159/230/159 156/227/156 154/225/154
s 2
f 160/231/160 163/234/163 162/233/162
f 162/233/162 161/232/161 160/231/160
f 141/210/141 162/233/162 164/235/164
f 161/232/161 162/233/162 141/210/141
f 141/210/141 165/236/165 161/232/161
f 160/231/160 161/232/161 165/236/165
f 165/236/165 166/237/166 160/231/160
f 146/238/146 165/236/165 142/211/142
f 166/237/166 165/236/165 146/238/146
f 142/211/142 165/236/165 141/210/141
s 4
f 45/240/45 167/239/167 169/242/169
f 169/242/169 168/241/168 45/240/45
f 158/243/158 171/245/171 170/244/170
f 167/239/167 170/244/170 171/245/171
f 171/245/171 172/246/172 169/242/169
f 167/239/167 171/245/171 169/242/169
f 167/239/167 45/240/45 31/248/31
f 31/248/31 173/247/173 167/239/167
f 174/249/174 173/247/173 31/248/31
f 31/248/31 175/250/175 174/249/174
f 167/239/167 173/247/173 176/251/176
f 176/251/176 170/244/170 167/239/167
f 158/243/158 176/251/176 157/252/157
f 170/244/170 176/251/176 158/243/158
f 157/252/157 176/251/176 177/253/177
f 174/249/174 177/253/177 176/251/176
f 176/251/176 173/247/173 174/249/174
f 174/249/174 175/250/175 33/255/33
f 33/255/33 178/254/178 174/249/174
f 179/256/179 178/254/178 33/255/33
f 33/255/33 180/257/180 179/256/179
f 174/249/174 178/254/178 181/258/181
f 181/258/181 177/253/177 174/249/174
f 157/252/157 181/258/181 159/259/159
f 177/253/177 181/258/181 157/252/157
f 159/259/159 181/258/181 182/260/182
f 179/256/179 182/260/182 181/258/181
f 181/258/181 178/254/178 179/256/179
s 32
f 146/261/146 183/263/183 166/262/166
f 160/264/160 166/262/166 183/263/183
f 183/263/183 184/265/184 160/264/160
f 185/266/185 184/265/184 183/263/183
f 183/263/183 186/267/186 185/266/185
f 147/268/147 183/263/183 146/261/146
f 186/267/186 183/263/183 147/268/147
f 160/264/160 184/265/184 36/270/36
f 36/270/36 163/269/163 160/264/160
f 185/266/185 53/271/53 36/270/36
f 36/270/36 184/265/184 185/266/185
f 147/268/147 187/272/187 186/267/186
f 185/266/185 186/267/186 187/272/187
f 187/272/187 188/273/188 185/266/185
f 189/274/189 188/273/188 187/272/187
f 187/272/187 190/275/190 189/274/189
f 150/276/150 187/272/187 147/268/147
f 190/275/190 187/272/187 150/276/150
f 185/266/185 188/273/188 38/277/38
f 38/277/38 53/271/53 185/266/185
f 189/274/189 56/278/56 38/277/38
f 38/277/38 188/273/188 189/274/189
f 150/276/150 191/279/191 190/275/190
f 189/274/189 190/275/190 191/279/191
f 191/279/191 192/280/192 189/274/189
f 193/281/193 192/280/192 191/279/191
f 191/279/191 194/282/194 193/281/193
f 153/283/153 191/279/191 150/276/150
f 194/282/194 191/279/191 153/283/153
f 189/274/189 192/280/192 195/284/195
f 195/284/195 56/278/56 189/274/189
f 193/281/193 59/285/59 195/284/195
f 195/284/195 192/280/192 193/281/193
f 153/283/153 196/286/196 194/282/194
f 193/281/193 194/282/194 196/286/196
f 196/286/196 197/287/197 193/281/193
f 198/288/198 197/287/197 196/286/196
f 196/286/196 199/289/199 198/288/198
f 156/290/156 196/286/196 153/283/153
f 199/289/199 196/286/196 156/290/156
f 193/281/193 197/287/197 200/291/200
f 200/291/200 59/285/59 193/281/193
f 198/288/198 62/292/62 200/291/200
f 200/291/200 197/287/197 198/288/198
f 156/290/156 201/293/201 199/289/199
f 198/288/198 199/289/199 201/293/201
f 201/293/201 202/294/202 198/288/198
f 179/295/179 202/294/202 201/293/201
f 201/293/201 182/296/182 179/295/179
f 159/297/159 201/293/201 156/290/156
f 182/296/182 201/293/201 159/297/159
f 198/288/198 202/294/202 42/298/42
f 42/298/42 62/292/62 198/288/198
f 179/295/179 180/299/180 42/298/42
f 42/298/42 202/294/202 179/295/179
s 2
f 140/209/140 203/300/203 204/301/204
f 204/301/204 143/212/143 140/209/140
s 16
f 143/213/143 204/302/204 205/303/205
f 205/303/205 145/216/145 143/213/143
f 145/216/145 205/303/205 206/304/206
f 206/304/206 149/220/149 145/216/145
f 149/220/149 206/304/206 207/305/207
f 207/305/207 152/223/152 149/220/149
f 152/223/152 207/305/207 208/306/208
f 208/306/208 155/226/155 152/223/152
f 155/226/155 208/306/208 209/307/209
f 209/307/209 158/229/158 155/226/155
s 4
f 210/308/210 172/246/172 171/245/171
f 209/309/209 211/310/211 171/245/171
f 171/245/171 158/243/158 209/309/209
f 211/310/211 210/308/210 171/245/171
s 2
f 212/311/212 215/314/215 214/313/214
f 214/313/214 213/312/213 212/311/212
s 16
f 213/315/213 214/318/214 217/317/217
f 217/317/217 216/316/216 213/315/213
f 214/318/214 219/320/219 218/319/218
f 218/319/218 217/317/217 214/318/214
f 216/316/216 217/317/217 221/322/221
f 221/322/221 220/321/220 216/316/216
f 217/317/217 218/319/218 222/323/222
f 222/323/222 221/322/221 217/317/217
f 220/321/220 221/322/221 224/325/224
f 224/325/224 223/324/223 220/321/220
f 221/322/221 222/323/222 225/326/225
f 225/326/225 224/325/224 221/322/221
f 223/324/223 224/325/224 227/328/227
f 227/328/227 226/327/226 223/324/223
f 224/325/224 225/326/225 228/329/228
f 228/329/228 227/328/227 224/325/224
f 226/327/226 227/328/227 230/331/230
f 230/331/230 229/330/229 226/327/226
f 227/328/227 228/329/228 231/332/231
f 231/332/231 230/331/230 227/328/227
s 2
f 232/333/232 233/336/233 88/335/88
f 88/335/88 89/334/89 232/333/232
f 215/314/215 234/337/234 88/335/88
f 233/336/233 215/314/215 88/335/88
f 215/314/215 233/336/233 235/338/235
f 232/333/232 236/339/236 235/338/235
f 235/338/235 233/336/233 232/333/232
f 219/340/219 214/313/214 235/338/235
f 236/339/236 219/340/219 235/338/235
f 214/313/214 215/314/215 235/338/235
s 4
f 238/344/238 168/343/168 169/342/169
f 169/342/169 237/341/237 238/344/238
f 229/345/229 240/347/240 239/346/239
f 169/342/169 172/348/172 239/346/239
f 237/341/237 169/342/169 239/346/239
f 237/341/237 239/346/239 240/347/240
f 237/341/237 242/350/242 241/349/241
f 241/349/241 238/344/238 237/341/237
f 243/351/243 100/352/100 241/349/241
f 241/349/241 242/350/242 243/351/243
f 237/341/237 240/347/240 244/353/244
f 244/353/244 242/350/242 237/341/237
f 229/345/229 230/354/230 244/353/244
f 240/347/240 229/345/229 244/353/244
f 230/354/230 245/355/245 244/353/244
f 243/351/243 242/350/242 244/353/244
f 244/353/244 245/355/245 243/351/243
f 243/351/243 246/357/246 103/356/103
f 103/356/103 100/352/100 243/351/243
f 247/358/247 106/359/106 103/356/103
f 103/356/103 246/357/246 247/358/247
f 243/351/243 245/355/245 248/360/248
f 248/360/248 246/357/246 243/351/243
f 230/354/230 231/361/231 248/360/248
f 245/355/245 230/354/230 248/360/248
f 231/361/231 249/362/249 248/360/248
f 247/358/247 246/357/246 248/360/248
f 248/360/248 249/362/249 247/358/247
s 32
f 219/363/219 236/365/236 250/364/250
f 232/366/232 251/367/251 250/364/250
f 250/364/250 236/365/236 232/366/232
f 252/368/252 253/369/253 250/364/250
f 250/364/250 251/367/251 252/368/252
f 218/370/218 219/363/219 250/364/250
f 253/369/253 218/370/218 250/364/250
f 232/366/232 89/372/89 254/371/254
f 254/371/254 251/367/251 232/366/232
f 252/368/252 251/367/251 254/371/254
f 254/371/254 255/373/255 252/368/252
f 218/370/218 253/369/253 256/374/256
f 252/368/252 257/375/257 256/374/256
f 256/374/256 253/369/253 252/368/252
f 258/376/258 259/377/259 256/374/256
f 256/374/256 257/375/257 258/376/258
f 222/378/222 218/370/218 256/374/256
f 259/377/259 222/378/222 256/374/256
f 252/368/252 255/373/255 117/379/117
f 117/379/117 257/375/257 252/368/252
f 258/376/258 257/375/257 117/379/117
f 117/379/117 260/380/260 258/376/258
f 222/378/222 259/377/259 261/381/261
f 258/376/258 262/382/262 261/381/261
f 261/381/261 259/377/259 258/376/258
f 263/383/263 264/384/264 261/381/261
f 261/381/261 262/382/262 263/383/263
f 225/385/225 222/378/222 261/381/261
f 264/384/264 225/385/225 261/381/261
f 258/376/258 260/380/260 122/386/122
f 122/386/122 262/382/262 258/376/258
f 263/383/263 262/382/262 122/386/122
f 122/386/122 123/387/123 263/383/263
f 225/385/225 264/384/264 265/388/265
f 263/383/263 266/389/266 265/388/265
f 265/388/265 264/384/264 263/383/263
f 267/390/267 268/391/268 265/388/265
f 265/388/265 266/389/266 267/390/267
f 228/392/228 225/385/225 265/388/265
f 268/391/268 228/392/228 265/388/265
f 263/383/263 123/387/123 269/393/269
f 269/393/269 266/389/266 263/383/263
f 267/390/267 266/389/266 269/393/269
f 269/393/269 128/394/128 267/390/267
f 228/392/228 268/391/268 270/395/270
f 267/390/267 271/396/271 270/395/270
f 270/395/270 268/391/268 267/390/267
f 247/397/247 249/398/249 270/395/270
f 270/395/270 271/396/271 247/397/247
f 231/399/231 228/392/228 270/395/270
f 249/398/249 231/399/231 270/395/270
f 267/390/267 128/394/128 272/400/272
f 272/400/272 271/396/271 267/390/267
f 247/397/247 271/396/271 272/400/272
f 272/400/272 106/401/106 247/397/247
s 2
f 212/311/212 213/312/213 204/403/204
f 204/403/204 203/402/203 212/311/212
s 16
f 213/315/213 216/316/216 205/405/205
f 205/405/205 204/404/204 213/315/213
f 216/316/216 220/321/220 206/406/206
f 206/406/206 205/405/205 216/316/216
f 220/321/220 223/324/223 207/407/207
f 207/407/207 206/406/206 220/321/220
f 223/324/223 226/327/226 208/408/208
f 208/408/208 207/407/207 223/324/223
f 226/327/226 229/330/229 209/409/209
f 209/409/209 208/408/208 226/327/226
s 4
f 210/410/210 239/346/239 172/348/172
f 209/411/209 229/345/229 239/346/239
f 239/346/239 211/412/211 209/411/209
f 211/412/211 239/346/239 210/410/210
s 2
f 141/210/141 164/235/164 137/413/137
f 137/413/137 140/209/140 141/210/141
f 140/209/140 137/413/137 139/414/139
f 139/414/139 203/300/203 140/209/140
f 212/311/212 138/415/138 234/337/234
f 234/337/234 215/314/215 212/311/212
f 203/402/203 139/416/139 138/415/138
f 138/415/138 212/311/212 203/402/203
# 540 faces

g
# object Object09 to come ...
#
v  231.489990 83.448128 -12.149793
v  231.964325 83.448128 -11.879439
v  231.938812 83.448128 -10.891892
v  231.464478 83.448128 -11.162246
v  232.628113 83.469521 -11.000062
v  231.149933 83.448128 -12.343616
v  231.124420 83.448128 -11.356069
v  230.809860 83.448128 -12.537437
v  230.784348 83.448128 -11.549891
v  230.310013 83.448128 -11.820245
v  230.335526 83.448128 -12.807792
v  229.646240 83.469521 -12.699622
v  231.489990 6.726029 -12.149793
v  232.143234 6.727408 -11.777467
v  232.995514 6.753229 -10.790652
v  232.117722 6.727408 -10.789920
v  231.464478 6.726029 -11.162246
v  231.124420 6.726029 -11.356069
v  230.784348 6.726029 -11.549891
v  230.131104 6.727408 -11.922217
v  229.278824 6.753229 -12.909031
v  230.156616 6.727408 -12.909764
v  230.809860 6.726029 -12.537437
v  231.149933 6.726029 -12.343616
# 24 vertices

vt  0.666667 0.333333 0.000000
vt  0.666667 0.666667 0.000000
vt  0.333333 0.666667 0.000000
vt  0.333333 0.333333 0.000000
vt  0.500000 0.833333 0.000000
vt  0.666667 0.094360 0.000000
vt  0.333333 0.094360 0.000000
vt  0.666667 0.333333 0.000000
vt  0.333333 0.333333 0.000000
vt  0.333333 0.666667 0.000000
vt  0.666667 0.666667 0.000000
vt  0.500000 0.833333 0.000000
vt  0.666667 0.094360 0.000000
vt  0.333333 0.094360 0.000000
vt  0.666667 0.333333 0.000000
vt  0.666667 0.666667 0.000000
vt  0.500000 0.833333 0.000000
vt  0.333333 0.666667 0.000000
vt  0.333333 0.333333 0.000000
vt  0.333333 0.094360 0.000000
vt  0.333333 0.094360 0.000000
vt  0.333333 0.333333 0.000000
vt  0.333333 0.666667 0.000000
vt  0.500000 0.833333 0.000000
vt  0.666667 0.666667 0.000000
vt  0.666667 0.333333 0.000000
vt  0.666667 0.094360 0.000000
vt  0.666667 0.094360 0.000000
# 28 texture vertices

vn  0.039213 0.000000 -1.517950
vn  0.039213 0.000000 -1.517950
vn  -0.025778 0.000205 1.520687
vn  -0.039213 0.000000 1.517950
vn  0.052396 0.000421 -1.505515
vn  0.039213 0.000000 -1.517950
vn  -0.039213 0.000000 1.517950
vn  0.039213 0.000000 -1.517950
vn  -0.039213 0.000000 1.517950
vn  -0.039213 0.000000 1.517950
vn  0.025778 0.000205 -1.520687
vn  -0.052396 0.000421 1.505515
vn  0.000068 -0.428182 0.000039
vn  0.001018 -0.428174 0.000580
vn  0.001936 -0.428153 0.001103
vn  0.001018 -0.428174 0.000580
vn  0.000068 -0.428182 0.000039
vn  0.000000 -0.428182 0.000000
vn  -0.000068 -0.428182 -0.000039
vn  -0.001018 -0.428174 -0.000580
vn  -0.001936 -0.428153 -0.001103
vn  -0.001018 -0.428174 -0.000580
vn  -0.000068 -0.428182 -0.000039
vn  0.000000 -0.428182 0.000000
# 24 vertex normals

g Object09
s 2
f 285/431/285 286/432/286 288/434/288
f 288/434/288 289/435/289 285/431/285
f 288/434/288 286/432/286 287/433/287
f 285/431/285 289/435/289 290/437/290
f 290/437/290 296/443/296 285/431/285
f 295/442/295 291/438/291 292/439/292
f 292/439/292 294/441/294 295/442/295
f 292/439/292 293/440/293 294/441/294
f 295/442/295 296/444/296 290/436/290
f 290/436/290 291/438/291 295/442/295
s 0
f 273/417/273 274/418/274 286/432/286
f 286/432/286 285/431/285 273/417/273
f 274/418/274 277/421/277 287/433/287
f 287/433/287 286/432/286 274/418/274
f 277/421/277 275/419/275 288/434/288
f 288/434/288 287/433/287 277/421/277
f 275/419/275 276/420/276 289/435/289
f 289/435/289 288/434/288 275/419/275
f 276/420/276 279/423/279 290/437/290
f 290/437/290 289/435/289 276/420/276
f 279/430/279 281/425/281 291/438/291
f 291/438/291 290/436/290 279/430/279
f 281/425/281 282/426/282 292/439/292
f 292/439/292 291/438/291 281/425/281
f 282/426/282 284/428/284 293/440/293
f 293/440/293 292/439/292 282/426/282
f 284/428/284 283/427/283 294/441/294
f 294/441/294 293/440/293 284/428/284
f 283/427/283 280/424/280 295/442/295
f 295/442/295 294/441/294 283/427/283
f 280/424/280 278/429/278 296/444/296
f 296/444/296 295/442/295 280/424/280
f 278/422/278 273/417/273 285/431/285
f 285/431/285 296/443/296 278/422/278
f 280/424/280 283/427/283 284/428/284
f 278/422/278 280/424/280 284/428/284
f 284/428/284 282/426/282 281/425/281
f 284/428/284 281/425/281 279/430/279
f 276/420/276 275/419/275 277/421/277
f 279/430/279 276/420/276 277/421/277
f 284/428/284 279/430/279 277/421/277
f 278/422/278 284/428/284 277/421/277
f 273/417/273 278/422/278 277/421/277
f 273/417/273 277/421/277 274/418/274
# 44 faces

g
# object Object10 to come ...
#
v  231.721069 7.459453 -14.318029
v  232.369583 7.459453 -14.047675
v  232.292999 7.523631 -11.879439
v  231.644501 7.523631 -12.149794
v  232.258118 7.523631 -10.891891
v  231.609619 7.523631 -11.162246
v  232.181549 7.459453 -8.723656
v  231.533035 7.459453 -8.994010
v  232.223251 5.331429 -9.904345
v  231.574738 5.331429 -10.174699
v  232.929016 7.470573 -8.684855
v  232.871750 5.331429 -9.633990
v  233.098068 7.470573 -13.471171
v  232.327881 5.331429 -12.866986
v  232.976395 5.331429 -12.596632
v  231.679367 5.331429 -13.137341
v  231.256134 7.459453 -14.511852
v  231.214447 5.331429 -13.331163
v  232.927200 7.522076 -12.123399
v  233.452240 7.095497 -13.460245
v  233.801086 7.141270 -12.632003
v  233.149796 7.499548 -12.177976
v  233.200531 7.513680 -11.000061
v  233.974075 7.176812 -10.677582
v  233.670044 7.141270 -8.922024
v  233.069275 7.499548 -9.898014
v  232.856934 7.522076 -10.133912
v  233.273682 7.095497 -8.404447
v  233.404160 6.320274 -8.310772
v  233.854141 6.326060 -8.702943
v  233.830032 5.331429 -10.317551
v  233.417496 5.331429 -9.972293
v  234.225128 6.343150 -10.572924
v  233.995087 6.326060 -12.693462
v  233.859268 5.331429 -11.145529
v  233.976151 5.331429 -10.676715
v  233.585464 6.320274 -13.443992
v  233.482742 5.331429 -11.819734
v  231.179565 7.523631 -12.343616
v  231.144684 7.523631 -11.356069
v  231.068100 7.459453 -9.187833
v  231.109802 5.331429 -10.368521
v  230.791214 7.459453 -14.705674
v  230.714630 7.523631 -12.537438
v  230.066116 7.523631 -12.807793
v  230.142700 7.459453 -14.976028
v  230.679749 7.523631 -11.549891
v  230.031235 7.523631 -11.820246
v  230.603165 7.459453 -9.381655
v  229.954666 7.459453 -9.652009
v  230.644867 5.331429 -10.562344
v  229.996368 5.331429 -10.832698
v  229.347855 5.331429 -11.103052
v  229.226181 7.470573 -10.228514
v  229.395218 7.470573 -15.014830
v  229.452484 5.331429 -14.065695
v  230.100998 5.331429 -13.795341
v  230.749512 5.331429 -13.524986
v  229.467316 7.522076 -13.565772
v  229.050568 7.095497 -15.295238
v  228.654190 7.141270 -14.777660
v  229.254974 7.499548 -13.801670
v  229.123718 7.513680 -12.699623
v  228.350159 7.176812 -13.022103
v  228.523163 7.141270 -11.067682
v  229.174438 7.499548 -11.521708
v  229.397049 7.522076 -11.576286
v  228.871994 7.095497 -10.239439
v  228.738785 6.320274 -10.255692
v  228.329163 6.326060 -11.006222
v  228.464981 5.331429 -12.554155
v  228.841507 5.331429 -11.879951
v  228.099121 6.343150 -13.126760
v  228.470108 6.326060 -14.996742
v  228.494217 5.331429 -13.382133
v  228.348083 5.331429 -13.022969
v  228.920090 6.320274 -15.388913
v  228.906754 5.331429 -13.727391
v  232.164276 5.331429 -8.234598
v  231.515762 5.331429 -8.504952
v  231.050827 5.331429 -8.698775
v  230.585892 5.331429 -8.892598
v  229.937393 5.331429 -9.162952
v  229.269302 5.331429 -9.446734
v  228.739868 5.331429 -10.253769
v  228.330933 5.331429 -10.999854
v  228.097458 5.331429 -13.127453
v  228.472260 5.331429 -15.001472
v  228.921280 5.331429 -15.389888
v  229.491531 5.331429 -15.738481
v  230.159973 5.331429 -15.465086
v  230.808487 5.331429 -15.194732
v  231.273422 5.331429 -15.000909
v  231.738342 5.331429 -14.807087
v  232.386856 5.331429 -14.536733
v  233.054932 5.331429 -14.252950
v  233.584366 5.331429 -13.445916
v  233.993317 5.331429 -12.699830
v  234.226791 5.331429 -10.572231
v  233.851990 5.331429 -8.698214
v  233.402969 5.331429 -8.309796
v  232.832718 5.331429 -7.961204
# 102 vertices

vt  1.000000 0.333333 0.000000
vt  1.000000 0.666667 0.000000
vt  0.666667 0.666667 0.000000
vt  0.666667 0.333333 0.000000
vt  0.333333 0.666667 0.000000
vt  0.333333 0.333333 0.000000
vt  -0.000000 0.666667 0.000000
vt  -0.000000 0.333333 0.000000
vt  0.333333 0.000000 0.000000
vt  0.666667 0.000000 0.000000
vt  0.666667 0.200000 0.000000
vt  0.333333 0.200000 0.000000
vt  1.000000 0.000000 0.000000
vt  1.000000 0.200000 0.000000
vt  0.000000 0.000000 0.000000
vt  0.333333 0.000000 0.000000
vt  0.333333 0.200000 0.000000
vt  0.000000 0.200000 0.000000
vt  0.666667 0.000000 0.000000
vt  0.666667 0.200000 0.000000
vt  0.905640 0.000000 0.000000
vt  0.905640 0.200000 0.000000
vt  1.000000 1.000000 0.000000
vt  0.833333 0.833333 0.000000
vt  0.833333 1.000000 0.000000
vt  0.666667 1.000000 0.000000
vt  0.666667 0.833333 0.000000
vt  0.500000 0.833333 0.000000
vt  0.500000 1.000000 0.000000
vt  0.333333 1.000000 0.000000
vt  0.333333 0.833333 0.000000
vt  0.166667 0.833333 0.000000
vt  0.166667 1.000000 0.000000
vt  -0.000000 1.000000 0.000000
vt  0.000000 0.000000 0.000000
vt  0.166667 0.000000 0.000000
vt  0.166667 0.100000 0.000000
vt  0.333333 0.000000 0.000000
vt  0.333333 0.100000 0.000000
vt  0.333333 0.200000 0.000000
vt  0.166667 0.200000 0.000000
vt  0.000000 0.200000 0.000000
vt  0.500000 0.000000 0.000000
vt  0.500000 0.100000 0.000000
vt  0.666667 0.000000 0.000000
vt  0.666667 0.100000 0.000000
vt  0.666667 0.200000 0.000000
vt  0.500000 0.200000 0.000000
vt  0.833333 0.000000 0.000000
vt  0.833333 0.100000 0.000000
vt  1.000000 0.000000 0.000000
vt  1.000000 0.200000 0.000000
vt  0.833333 0.200000 0.000000
vt  1.000000 0.094360 0.000000
vt  0.666667 0.094360 0.000000
vt  0.333333 0.094360 0.000000
vt  -0.000000 0.094360 0.000000
vt  0.094360 0.000000 0.000000
vt  0.094360 0.200000 0.000000
vt  1.000000 0.333333 0.000000
vt  0.666667 0.333333 0.000000
vt  0.666667 0.666667 0.000000
vt  1.000000 0.666667 0.000000
vt  0.333333 0.333333 0.000000
vt  0.333333 0.666667 0.000000
vt  -0.000000 0.333333 0.000000
vt  -0.000000 0.666667 0.000000
vt  0.333333 0.000000 0.000000
vt  0.333333 0.200000 0.000000
vt  0.666667 0.200000 0.000000
vt  0.666667 0.000000 0.000000
vt  1.000000 0.200000 0.000000
vt  1.000000 0.000000 0.000000
vt  0.000000 0.000000 0.000000
vt  0.000000 0.200000 0.000000
vt  0.333333 0.200000 0.000000
vt  0.333333 0.000000 0.000000
vt  0.666667 0.200000 0.000000
vt  0.666667 0.000000 0.000000
vt  0.905640 0.200000 0.000000
vt  0.905640 0.000000 0.000000
vt  0.833333 0.833333 0.000000
vt  1.000000 1.000000 0.000000
vt  0.833333 1.000000 0.000000
vt  0.666667 1.000000 0.000000
vt  0.666667 0.833333 0.000000
vt  0.500000 0.833333 0.000000
vt  0.500000 1.000000 0.000000
vt  0.333333 1.000000 0.000000
vt  0.333333 0.833333 0.000000
vt  0.166667 0.833333 0.000000
vt  0.166667 1.000000 0.000000
vt  -0.000000 1.000000 0.000000
vt  0.000000 0.000000 0.000000
vt  0.166667 0.100000 0.000000
vt  0.166667 0.000000 0.000000
vt  0.333333 0.000000 0.000000
vt  0.333333 0.100000 0.000000
vt  0.333333 0.200000 0.000000
vt  0.166667 0.200000 0.000000
vt  0.000000 0.200000 0.000000
vt  0.500000 0.100000 0.000000
vt  0.500000 0.000000 0.000000
vt  0.666667 0.000000 0.000000
vt  0.666667 0.100000 0.000000
vt  0.666667 0.200000 0.000000
vt  0.500000 0.200000 0.000000
vt  0.833333 0.100000 0.000000
vt  0.833333 0.000000 0.000000
vt  1.000000 0.000000 0.000000
vt  1.000000 0.200000 0.000000
vt  0.833333 0.200000 0.000000
vt  1.000000 0.094360 0.000000
vt  0.666667 0.094360 0.000000
vt  0.333333 0.094360 0.000000
vt  -0.000000 0.094360 0.000000
vt  0.094360 0.000000 0.000000
vt  0.094360 0.200000 0.000000
vt  0.666667 0.200000 0.000000
vt  0.333333 0.200000 0.000000
vt  0.094360 0.200000 0.000000
vt  0.094360 0.200000 0.000000
vt  0.333333 0.200000 0.000000
vt  0.666667 0.200000 0.000000
vt  1.000000 0.200000 0.000000
vt  0.000000 0.200000 0.000000
vt  0.166667 0.200000 0.000000
vt  0.333333 0.200000 0.000000
vt  0.500000 0.200000 0.000000
vt  0.666667 0.200000 0.000000
vt  0.833333 0.200000 0.000000
vt  0.000000 0.200000 0.000000
vt  1.000000 0.200000 0.000000
vt  0.333333 0.200000 0.000000
vt  0.666667 0.200000 0.000000
vt  0.905640 0.200000 0.000000
vt  0.905640 0.200000 0.000000
vt  0.666667 0.200000 0.000000
vt  0.333333 0.200000 0.000000
vt  0.000000 0.200000 0.000000
vt  1.000000 0.200000 0.000000
vt  0.833333 0.200000 0.000000
vt  0.666667 0.200000 0.000000
vt  0.500000 0.200000 0.000000
vt  0.333333 0.200000 0.000000
vt  0.166667 0.200000 0.000000
vt  1.000000 0.200000 0.000000
vt  0.000000 0.200000 0.000000
# 148 texture vertices

vn  0.018529 0.305233 -0.524632
vn  0.018529 0.305233 -0.524632
vn  0.005309 0.198098 -0.159549
vn  0.005935 0.197975 -0.168028
vn  -0.005952 0.198098 0.159280
vn  -0.005935 0.197975 0.168028
vn  -0.018529 0.305233 0.524632
vn  -0.018529 0.305233 0.524632
vn  0.000000 -0.199199 0.000000
vn  0.000000 -0.199199 0.000000
vn  -0.062776 0.013507 2.313480
vn  0.000000 -0.199199 0.000000
vn  0.097086 0.009974 -2.301338
vn  0.000000 -0.199199 0.000000
vn  0.000000 -0.199199 0.000000
vn  0.000000 -0.199199 0.000000
vn  0.084176 0.009432 -2.383308
vn  0.000000 -0.199199 0.000000
vn  0.026671 0.168383 0.753586
vn  0.208157 0.254333 -2.401486
vn  0.287903 0.391092 -2.288621
vn  0.059481 0.143948 -1.028680
vn  0.074440 0.188268 0.031033
vn  0.183085 0.321349 0.076325
vn  0.120230 0.391092 2.458765
vn  -0.013854 0.143948 1.047701
vn  0.078357 0.168383 -0.709802
vn  0.034942 0.254333 2.502830
vn  -0.021028 0.006379 1.515446
vn  0.062756 0.011501 1.373433
vn  0.000000 -0.199199 0.000000
vn  0.000000 -0.199199 0.000000
vn  0.226390 0.022473 0.094378
vn  0.156544 0.011501 -1.282010
vn  0.000000 -0.199199 0.000000
vn  0.000000 -0.199199 0.000000
vn  0.085077 0.006379 -1.488745
vn  0.000000 -0.199199 0.000000
vn  0.005935 0.197975 -0.168028
vn  -0.005935 0.197975 0.168028
vn  -0.018529 0.305233 0.524632
vn  0.000000 -0.199199 0.000000
vn  0.018529 0.305233 -0.524632
vn  0.005935 0.197975 -0.168028
vn  0.005952 0.198098 -0.159280
vn  0.018529 0.305233 -0.524632
vn  -0.005935 0.197975 0.168028
vn  -0.005309 0.198098 0.159549
vn  -0.018529 0.305233 0.524632
vn  -0.018529 0.305233 0.524632
vn  0.000000 -0.199199 0.000000
vn  0.000000 -0.199199 0.000000
vn  0.000000 -0.199199 0.000000
vn  -0.100094 0.013507 2.297923
vn  0.065934 0.009974 -2.314325
vn  0.000000 -0.199199 0.000000
vn  0.000000 -0.199199 0.000000
vn  0.000000 -0.199199 0.000000
vn  -0.078357 0.168383 0.709802
vn  -0.034942 0.254333 -2.502830
vn  -0.120230 0.391092 -2.458765
vn  0.013854 0.143948 -1.047702
vn  -0.074440 0.188268 -0.031033
vn  -0.183085 0.321349 -0.076325
vn  -0.287903 0.391092 2.288621
vn  -0.059481 0.143948 1.028681
vn  -0.026671 0.168383 -0.753587
vn  -0.208157 0.254333 2.401485
vn  -0.085077 0.006379 1.488745
vn  -0.156544 0.011501 1.282010
vn  0.000000 -0.199199 0.000000
vn  0.000000 -0.199199 0.000000
vn  -0.226390 0.022473 -0.094379
vn  -0.062756 0.011501 -1.373433
vn  0.000000 -0.199199 0.000000
vn  0.000000 -0.199199 0.000000
vn  0.021028 0.006379 -1.515446
vn  0.000000 -0.199199 0.000000
vn  -0.053455 0.006005 1.517316
vn  -0.053588 0.006005 1.517261
vn  -0.053588 0.006005 1.517261
vn  -0.053588 0.006005 1.517261
vn  -0.053721 0.006005 1.517205
vn  -0.089677 0.010456 2.424645
vn  -0.092717 0.000003 1.477806
vn  -0.154148 0.000074 1.296383
vn  -0.227845 0.000286 -0.094985
vn  -0.059429 0.000074 -1.385420
vn  0.012848 0.000003 -1.511102
vn  0.085227 0.014685 -2.425262
vn  0.052318 0.007298 -1.517433
vn  0.053588 0.006005 -1.517261
vn  0.053588 0.006005 -1.517261
vn  0.053588 0.006005 -1.517261
vn  0.054833 0.007298 -1.516384
vn  0.086076 0.014685 -2.424908
vn  0.092717 0.000003 -1.477806
vn  0.154148 0.000074 -1.296383
vn  0.227845 0.000286 0.094985
vn  0.059429 0.000074 1.385420
vn  -0.012848 0.000003 1.511102
vn  -0.081712 0.010456 2.427965
# 102 vertex normals

g Object10
s 2
f 299/447/299 298/446/298 297/445/297
f 297/445/297 300/448/300 299/447/299
f 301/449/301 299/447/299 300/448/300
f 300/448/300 302/450/302 301/449/301
f 303/451/303 301/449/301 302/450/302
f 302/450/302 304/452/304 303/451/303
s 16
f 375/563/375 303/454/303 304/453/304
f 304/453/304 376/564/376 375/563/375
f 398/591/398 307/457/307 303/454/303
f 303/454/303 375/563/375 398/591/398
s 64
f 391/583/391 298/460/298 309/459/309
f 309/459/309 392/584/392 391/583/391
f 390/582/390 297/463/297 298/460/298
f 298/460/298 391/583/391 390/582/390
f 390/582/390 389/581/389 313/465/313
f 313/465/313 297/463/297 390/582/390
s 2
f 315/468/315 309/467/309 298/446/298
f 315/468/315 316/469/316 309/467/309
f 315/468/315 318/471/318 317/470/317
f 317/470/317 316/469/316 315/468/315
f 315/468/315 298/446/298 299/447/299
f 315/468/315 299/447/299 318/471/318
f 319/472/319 318/471/318 299/447/299
f 319/472/319 320/473/320 317/470/317
f 317/470/317 318/471/318 319/472/319
f 319/472/319 322/475/322 321/474/321
f 321/474/321 320/473/320 319/472/319
f 319/472/319 299/447/299 301/449/301
f 319/472/319 301/449/301 322/475/322
f 323/476/323 322/475/322 301/449/301
f 323/476/323 324/477/324 321/474/321
f 321/474/321 322/475/322 323/476/323
f 323/476/323 303/451/303 307/478/307
f 323/476/323 307/478/307 324/477/324
f 323/476/323 301/449/301 303/451/303
s 32
f 325/481/325 324/480/324 307/479/307
f 325/481/325 326/483/326 321/482/321
f 321/482/321 324/480/324 325/481/325
f 325/481/325 397/590/397 396/589/396
f 396/589/396 326/483/326 325/481/325
f 325/481/325 307/479/307 398/486/398
f 325/481/325 398/592/398 397/590/397
f 329/488/329 320/487/320 321/482/321
f 321/482/321 326/483/326 329/488/329
f 329/488/329 330/490/330 317/489/317
f 317/489/317 320/487/320 329/488/329
f 329/488/329 395/588/395 394/587/394
f 394/587/394 330/490/330 329/488/329
f 329/488/329 326/483/326 396/589/396
f 396/589/396 395/588/395 329/488/329
f 333/494/333 316/493/316 317/489/317
f 317/489/317 330/490/330 333/494/333
f 333/494/333 392/496/392 309/495/309
f 333/494/333 309/495/309 316/493/316
f 333/494/333 393/586/393 392/585/392
f 333/494/333 330/490/330 394/587/394
f 394/587/394 393/586/393 333/494/333
s 2
f 335/499/335 300/448/300 297/445/297
f 297/445/297 313/498/313 335/499/335
f 336/500/336 302/450/302 300/448/300
f 300/448/300 335/499/335 336/500/336
f 337/501/337 304/452/304 302/450/302
f 302/450/302 336/500/336 337/501/337
s 16
f 377/566/377 376/564/376 304/453/304
f 304/453/304 337/502/337 377/566/377
s 2
f 341/506/341 340/505/340 339/504/339
f 339/504/339 342/507/342 341/506/341
f 344/509/344 343/508/343 340/505/340
f 340/505/340 341/506/341 344/509/344
f 346/511/346 345/510/345 343/508/343
f 343/508/343 344/509/344 346/511/346
s 16
f 379/568/379 378/567/378 345/512/345
f 345/512/345 346/515/346 379/568/379
f 380/569/380 379/568/379 346/515/346
f 346/515/346 350/517/350 380/569/380
s 64
f 387/578/387 386/576/386 351/518/351
f 351/518/351 342/521/342 387/578/387
f 388/579/388 387/578/387 342/521/342
f 342/521/342 339/523/339 388/579/388
f 388/579/388 339/523/339 313/525/313
f 313/525/313 389/580/389 388/579/388
s 2
f 351/527/351 355/526/355 342/507/342
f 356/528/356 355/526/355 351/527/351
f 355/526/355 356/528/356 357/529/357
f 357/529/357 358/530/358 355/526/355
f 342/507/342 355/526/355 341/506/341
f 341/506/341 355/526/355 358/530/358
f 358/530/358 359/531/359 341/506/341
f 359/531/359 358/530/358 357/529/357
f 357/529/357 360/532/360 359/531/359
f 359/531/359 360/532/360 361/533/361
f 361/533/361 362/534/362 359/531/359
f 341/506/341 359/531/359 344/509/344
f 344/509/344 359/531/359 362/534/362
f 362/534/362 363/535/363 344/509/344
f 363/535/363 362/534/362 361/533/361
f 361/533/361 364/536/364 363/535/363
f 346/511/346 363/535/363 350/537/350
f 350/537/350 363/535/363 364/536/364
f 344/509/344 363/535/363 346/511/346
s 32
f 364/540/364 365/539/365 350/538/350
f 365/539/365 364/540/364 361/541/361
f 361/541/361 366/542/366 365/539/365
f 365/539/365 366/542/366 382/572/382
f 382/572/382 381/571/381 365/539/365
f 350/538/350 365/539/365 380/545/380
f 380/570/380 365/539/365 381/571/381
f 369/546/369 366/542/366 361/541/361
f 361/541/361 360/547/360 369/546/369
f 369/546/369 360/547/360 357/548/357
f 357/548/357 370/549/370 369/546/369
f 369/546/369 370/549/370 384/574/384
f 384/574/384 383/573/383 369/546/369
f 369/546/369 383/573/383 382/572/382
f 382/572/382 366/542/366 369/546/369
f 373/552/373 370/549/370 357/548/357
f 357/548/357 356/553/356 373/552/373
f 386/555/386 373/552/373 351/554/351
f 351/554/351 373/552/373 356/553/356
f 385/575/385 373/552/373 386/577/386
f 373/552/373 385/575/385 384/574/384
f 384/574/384 370/549/370 373/552/373
s 2
f 335/558/335 313/557/313 339/504/339
f 339/504/339 340/505/340 335/558/335
f 336/559/336 335/558/335 340/505/340
f 340/505/340 343/508/343 336/559/336
f 337/560/337 336/559/336 343/508/343
f 343/508/343 345/510/345 337/560/337
s 16
f 377/565/377 337/561/337 345/512/345
f 345/512/345 378/567/378 377/565/377
s 0
f 376/564/376 306/456/306 305/455/305
f 305/455/305 375/563/375 376/564/376
f 377/566/377 338/503/338 306/456/306
f 306/456/306 376/564/376 377/566/377
f 378/567/378 347/513/347 338/562/338
f 338/562/338 377/565/377 378/567/378
f 379/568/379 348/514/348 347/513/347
f 347/513/347 378/567/378 379/568/379
f 380/569/380 349/516/349 348/514/348
f 348/514/348 379/568/379 380/569/380
f 381/571/381 368/544/368 349/545/349
f 349/545/349 380/570/380 381/571/381
f 382/572/382 367/543/367 368/544/368
f 368/544/368 381/571/381 382/572/382
f 383/573/383 372/551/372 367/543/367
f 367/543/367 382/572/382 383/573/383
f 384/574/384 371/550/371 372/551/372
f 372/551/372 383/573/383 384/574/384
f 385/575/385 374/556/374 371/550/371
f 371/550/371 384/574/384 385/575/385
f 386/577/386 352/555/352 374/556/374
f 374/556/374 385/575/385 386/577/386
f 387/578/387 353/520/353 352/519/352
f 352/519/352 386/576/386 387/578/387
f 388/579/388 354/522/354 353/520/353
f 353/520/353 387/578/387 388/579/388
f 389/580/389 314/524/314 354/522/354
f 354/522/354 388/579/388 389/580/389
f 390/582/390 312/464/312 314/466/314
f 314/466/314 389/581/389 390/582/390
f 391/583/391 310/461/310 312/464/312
f 312/464/312 390/582/390 391/583/391
f 392/584/392 311/462/311 310/461/310
f 310/461/310 391/583/391 392/584/392
f 393/586/393 334/497/334 311/496/311
f 311/496/311 392/585/392 393/586/393
f 394/587/394 331/491/331 334/497/334
f 334/497/334 393/586/393 394/587/394
f 395/588/395 332/492/332 331/491/331
f 331/491/331 394/587/394 395/588/395
f 396/589/396 327/484/327 332/492/332
f 332/492/332 395/588/395 396/589/396
f 397/590/397 328/485/328 327/484/327
f 327/484/327 396/589/396 397/590/397
f 398/592/398 308/486/308 328/485/328
f 328/485/328 397/590/397 398/592/398
f 375/563/375 305/455/305 308/458/308
f 308/458/308 398/591/398 375/563/375
f 328/485/328 308/458/308 305/455/305
f 332/492/332 327/484/327 328/485/328
f 334/497/334 331/491/331 332/492/332
f 334/497/334 332/492/332 328/485/328
f 310/461/310 311/496/311 334/497/334
f 312/464/312 310/461/310 334/497/334
f 312/464/312 334/497/334 328/485/328
f 314/466/314 312/464/312 328/485/328
f 374/556/374 352/519/352 353/520/353
f 374/556/374 353/520/353 354/522/354
f 374/556/374 354/522/354 314/466/314
f 372/551/372 371/550/371 374/556/374
f 368/544/368 367/543/367 372/551/372
f 368/544/368 372/551/372 374/556/374
f 348/514/348 349/545/349 368/544/368
f 347/513/347 348/514/348 368/544/368
f 347/513/347 368/544/368 374/556/374
f 347/513/347 374/556/374 314/466/314
f 347/513/347 314/466/314 328/485/328
f 338/562/338 347/513/347 328/485/328
f 306/456/306 338/562/338 328/485/328
f 306/456/306 328/485/328 305/455/305
# 200 faces

g
# object Object08 to come ...
#
v  231.721069 82.215958 -14.318029
v  232.369583 82.215958 -14.047675
v  232.292999 82.151779 -11.879439
v  231.644485 82.151779 -12.149794
v  232.258133 82.151779 -10.891891
v  231.609619 82.151779 -11.162246
v  232.181549 82.215958 -8.723656
v  231.533035 82.215958 -8.994010
v  232.223251 84.343979 -9.904345
v  231.574738 84.343979 -10.174699
v  232.929016 82.204834 -8.684855
v  232.871765 84.343979 -9.633990
v  233.098068 82.204834 -13.471171
v  232.327881 84.343979 -12.866986
v  232.976395 84.343979 -12.596633
v  231.679367 84.343979 -13.137341
v  231.256134 82.215958 -14.511851
v  231.214447 84.343979 -13.331163
v  232.927200 82.153328 -12.123399
v  233.452240 82.579910 -13.460245
v  233.801086 82.534134 -12.632003
v  233.149796 82.175858 -12.177976
v  233.200531 82.161728 -11.000062
v  233.974075 82.498596 -10.677582
v  233.670044 82.534134 -8.922024
v  233.069275 82.175858 -9.898014
v  232.856934 82.153328 -10.133912
v  233.273682 82.579910 -8.404448
v  233.404160 83.355133 -8.310772
v  233.854141 83.349350 -8.702943
v  233.830032 84.343979 -10.317551
v  233.417496 84.343979 -9.972294
v  234.225128 83.332260 -10.572925
v  233.995087 83.349350 -12.693463
v  233.859268 84.343979 -11.145530
v  233.976151 84.343979 -10.676716
v  233.585464 83.355133 -13.443992
v  233.482742 84.343979 -11.819734
v  231.179565 82.151779 -12.343616
v  231.144684 82.151779 -11.356069
v  231.068100 82.215958 -9.187833
v  231.109802 84.343979 -10.368521
v  230.791214 82.215958 -14.705674
v  230.714630 82.151779 -12.537438
v  230.066116 82.151779 -12.807793
v  230.142700 82.215958 -14.976028
v  230.679749 82.151779 -11.549891
v  230.031235 82.151779 -11.820245
v  230.603165 82.215958 -9.381655
v  229.954666 82.215958 -9.652009
v  230.644867 84.343979 -10.562344
v  229.996368 84.343979 -10.832698
v  229.347855 84.343979 -11.103051
v  229.226181 82.204834 -10.228514
v  229.395218 82.204834 -15.014830
v  229.452484 84.343979 -14.065694
v  230.100998 84.343979 -13.795340
v  230.749512 84.343979 -13.524985
v  229.467316 82.153328 -13.565772
v  229.050568 82.579910 -15.295237
v  228.654190 82.534134 -14.777660
v  229.254974 82.175858 -13.801670
v  229.123718 82.161728 -12.699622
v  228.350159 82.498596 -13.022102
v  228.523163 82.534134 -11.067681
v  229.174438 82.175858 -11.521708
v  229.397049 82.153328 -11.576285
v  228.871994 82.579910 -10.239439
v  228.738785 83.355133 -10.255692
v  228.329163 83.349350 -11.006221
v  228.464981 84.343979 -12.554154
v  228.841507 84.343979 -11.879951
v  228.099121 83.332260 -13.126760
v  228.470108 83.349350 -14.996741
v  228.494217 84.343979 -13.382133
v  228.348083 84.343979 -13.022968
v  228.920090 83.355133 -15.388912
v  228.906754 84.343979 -13.727390
v  232.164276 84.343979 -8.234598
v  231.515762 84.343979 -8.504952
v  231.050827 84.343979 -8.698775
v  230.585892 84.343979 -8.892597
v  229.937393 84.343979 -9.162951
v  229.269302 84.343979 -9.446733
v  228.739868 84.343979 -10.253768
v  228.330933 84.343979 -10.999853
v  228.097458 84.343979 -13.127452
v  228.472260 84.343979 -15.001471
v  228.921280 84.343979 -15.389888
v  229.491531 84.343979 -15.738481
v  230.159973 84.343979 -15.465086
v  230.808487 84.343979 -15.194732
v  231.273407 84.343979 -15.000909
v  231.738342 84.343979 -14.807087
v  232.386856 84.343979 -14.536733
v  233.054932 84.343979 -14.252951
v  233.584366 84.343979 -13.445916
v  233.993317 84.343979 -12.699831
v  234.226791 84.343979 -10.572232
v  233.851990 84.343979 -8.698214
v  233.402969 84.343979 -8.309796
v  232.832718 84.343979 -7.961204
# 102 vertices

vt  1.000000 0.333333 0.000000
vt  1.000000 0.666667 0.000000
vt  0.666667 0.666667 0.000000
vt  0.666667 0.333333 0.000000
vt  0.333333 0.666667 0.000000
vt  0.333333 0.333333 0.000000
vt  -0.000000 0.666667 0.000000
vt  -0.000000 0.333333 0.000000
vt  0.333333 0.000000 0.000000
vt  0.666667 0.000000 0.000000
vt  0.666667 0.200000 0.000000
vt  0.333333 0.200000 0.000000
vt  1.000000 0.000000 0.000000
vt  1.000000 0.200000 0.000000
vt  0.000000 0.000000 0.000000
vt  0.333333 0.000000 0.000000
vt  0.333333 0.200000 0.000000
vt  0.000000 0.200000 0.000000
vt  0.666667 0.000000 0.000000
vt  0.666667 0.200000 0.000000
vt  0.905640 0.000000 0.000000
vt  0.905640 0.200000 0.000000
vt  1.000000 1.000000 0.000000
vt  0.833333 0.833333 0.000000
vt  0.833333 1.000000 0.000000
vt  0.666667 1.000000 0.000000
vt  0.666667 0.833333 0.000000
vt  0.500000 0.833333 0.000000
vt  0.500000 1.000000 0.000000
vt  0.333333 1.000000 0.000000
vt  0.333333 0.833333 0.000000
vt  0.166667 0.833333 0.000000
vt  0.166667 1.000000 0.000000
vt  -0.000000 1.000000 0.000000
vt  0.000000 0.000000 0.000000
vt  0.166667 0.000000 0.000000
vt  0.166667 0.100000 0.000000
vt  0.333333 0.000000 0.000000
vt  0.333333 0.100000 0.000000
vt  0.333333 0.200000 0.000000
vt  0.166667 0.200000 0.000000
vt  0.000000 0.200000 0.000000
vt  0.500000 0.000000 0.000000
vt  0.500000 0.100000 0.000000
vt  0.666667 0.000000 0.000000
vt  0.666667 0.100000 0.000000
vt  0.666667 0.200000 0.000000
vt  0.500000 0.200000 0.000000
vt  0.833333 0.000000 0.000000
vt  0.833333 0.100000 0.000000
vt  1.000000 0.000000 0.000000
vt  1.000000 0.200000 0.000000
vt  0.833333 0.200000 0.000000
vt  1.000000 0.094360 0.000000
vt  0.666667 0.094360 0.000000
vt  0.333333 0.094360 0.000000
vt  -0.000000 0.094360 0.000000
vt  0.094360 0.000000 0.000000
vt  0.094360 0.200000 0.000000
vt  1.000000 0.333333 0.000000
vt  0.666667 0.333333 0.000000
vt  0.666667 0.666667 0.000000
vt  1.000000 0.666667 0.000000
vt  0.333333 0.333333 0.000000
vt  0.333333 0.666667 0.000000
vt  -0.000000 0.333333 0.000000
vt  -0.000000 0.666667 0.000000
vt  0.333333 0.000000 0.000000
vt  0.333333 0.200000 0.000000
vt  0.666667 0.200000 0.000000
vt  0.666667 0.000000 0.000000
vt  1.000000 0.200000 0.000000
vt  1.000000 0.000000 0.000000
vt  0.000000 0.000000 0.000000
vt  0.000000 0.200000 0.000000
vt  0.333333 0.200000 0.000000
vt  0.333333 0.000000 0.000000
vt  0.666667 0.200000 0.000000
vt  0.666667 0.000000 0.000000
vt  0.905640 0.200000 0.000000
vt  0.905640 0.000000 0.000000
vt  0.833333 0.833333 0.000000
vt  1.000000 1.000000 0.000000
vt  0.833333 1.000000 0.000000
vt  0.666667 1.000000 0.000000
vt  0.666667 0.833333 0.000000
vt  0.500000 0.833333 0.000000
vt  0.500000 1.000000 0.000000
vt  0.333333 1.000000 0.000000
vt  0.333333 0.833333 0.000000
vt  0.166667 0.833333 0.000000
vt  0.166667 1.000000 0.000000
vt  -0.000000 1.000000 0.000000
vt  0.000000 0.000000 0.000000
vt  0.166667 0.100000 0.000000
vt  0.166667 0.000000 0.000000
vt  0.333333 0.000000 0.000000
vt  0.333333 0.100000 0.000000
vt  0.333333 0.200000 0.000000
vt  0.166667 0.200000 0.000000
vt  0.000000 0.200000 0.000000
vt  0.500000 0.100000 0.000000
vt  0.500000 0.000000 0.000000
vt  0.666667 0.000000 0.000000
vt  0.666667 0.100000 0.000000
vt  0.666667 0.200000 0.000000
vt  0.500000 0.200000 0.000000
vt  0.833333 0.100000 0.000000
vt  0.833333 0.000000 0.000000
vt  1.000000 0.000000 0.000000
vt  1.000000 0.200000 0.000000
vt  0.833333 0.200000 0.000000
vt  1.000000 0.094360 0.000000
vt  0.666667 0.094360 0.000000
vt  0.333333 0.094360 0.000000
vt  -0.000000 0.094360 0.000000
vt  0.094360 0.000000 0.000000
vt  0.094360 0.200000 0.000000
vt  0.666667 0.200000 0.000000
vt  0.333333 0.200000 0.000000
vt  0.094360 0.200000 0.000000
vt  0.094360 0.200000 0.000000
vt  0.333333 0.200000 0.000000
vt  0.666667 0.200000 0.000000
vt  1.000000 0.200000 0.000000
vt  0.000000 0.200000 0.000000
vt  0.166667 0.200000 0.000000
vt  0.333333 0.200000 0.000000
vt  0.500000 0.200000 0.000000
vt  0.666667 0.200000 0.000000
vt  0.833333 0.200000 0.000000
vt  0.000000 0.200000 0.000000
vt  1.000000 0.200000 0.000000
vt  0.333333 0.200000 0.000000
vt  0.666667 0.200000 0.000000
vt  0.905640 0.200000 0.000000
vt  0.905640 0.200000 0.000000
vt  0.666667 0.200000 0.000000
vt  0.333333 0.200000 0.000000
vt  0.000000 0.200000 0.000000
vt  1.000000 0.200000 0.000000
vt  0.833333 0.200000 0.000000
vt  0.666667 0.200000 0.000000
vt  0.500000 0.200000 0.000000
vt  0.333333 0.200000 0.000000
vt  0.166667 0.200000 0.000000
vt  1.000000 0.200000 0.000000
vt  0.000000 0.200000 0.000000
# 148 texture vertices

vn  0.018529 -0.305233 -0.524632
vn  0.018529 -0.305233 -0.524632
vn  0.005309 -0.198098 -0.159549
vn  0.005935 -0.197975 -0.168028
vn  -0.005952 -0.198098 0.159280
vn  -0.005935 -0.197975 0.168028
vn  -0.018529 -0.305233 0.524632
vn  -0.018529 -0.305233 0.524632
vn  0.000000 0.199199 0.000000
vn  0.000000 0.199199 0.000000
vn  -0.062776 -0.013507 2.313480
vn  0.000000 0.199199 0.000000
vn  0.097086 -0.009974 -2.301338
vn  0.000000 0.199199 0.000000
vn  0.000000 0.199199 0.000000
vn  0.000000 0.199199 0.000000
vn  0.084176 -0.009432 -2.383308
vn  0.000000 0.199199 0.000000
vn  0.026671 -0.168383 0.753586
vn  0.208157 -0.254333 -2.401486
vn  0.287902 -0.391092 -2.288621
vn  0.059481 -0.143948 -1.028680
vn  0.074440 -0.188268 0.031033
vn  0.183085 -0.321349 0.076325
vn  0.120230 -0.391092 2.458765
vn  -0.013854 -0.143948 1.047701
vn  0.078357 -0.168383 -0.709802
vn  0.034942 -0.254333 2.502830
vn  -0.021028 -0.006379 1.515446
vn  0.062757 -0.011501 1.373433
vn  0.000000 0.199199 0.000000
vn  0.000000 0.199199 0.000000
vn  0.226390 -0.022473 0.094378
vn  0.156544 -0.011501 -1.282010
vn  0.000000 0.199199 0.000000
vn  0.000000 0.199199 0.000000
vn  0.085076 -0.006379 -1.488746
vn  0.000000 0.199199 0.000000
vn  0.005935 -0.197975 -0.168028
vn  -0.005935 -0.197975 0.168028
vn  -0.018529 -0.305233 0.524632
vn  0.000000 0.199199 0.000000
vn  0.018529 -0.305233 -0.524632
vn  0.005935 -0.197975 -0.168028
vn  0.005952 -0.198098 -0.159280
vn  0.018529 -0.305233 -0.524632
vn  -0.005935 -0.197975 0.168028
vn  -0.005309 -0.198098 0.159549
vn  -0.018529 -0.305233 0.524632
vn  -0.018529 -0.305233 0.524632
vn  0.000000 0.199199 0.000000
vn  0.000000 0.199199 0.000000
vn  0.000000 0.199199 0.000000
vn  -0.100093 -0.013507 2.297923
vn  0.065934 -0.009974 -2.314325
vn  0.000000 0.199199 0.000000
vn  0.000000 0.199199 0.000000
vn  0.000000 0.199199 0.000000
vn  -0.078357 -0.168383 0.709802
vn  -0.034942 -0.254333 -2.502830
vn  -0.120230 -0.391092 -2.458765
vn  0.013854 -0.143948 -1.047702
vn  -0.074440 -0.188268 -0.031033
vn  -0.183085 -0.321349 -0.076325
vn  -0.287902 -0.391092 2.288621
vn  -0.059481 -0.143948 1.028681
vn  -0.026671 -0.168383 -0.753587
vn  -0.208157 -0.254333 2.401485
vn  -0.085076 -0.006379 1.488745
vn  -0.156544 -0.011501 1.282010
vn  0.000000 0.199199 0.000000
vn  0.000000 0.199199 0.000000
vn  -0.226390 -0.022473 -0.094379
vn  -0.062757 -0.011501 -1.373433
vn  0.000000 0.199199 0.000000
vn  0.000000 0.199199 0.000000
vn  0.021028 -0.006379 -1.515446
vn  0.000000 0.199199 0.000000
vn  -0.053455 -0.006005 1.517316
vn  -0.053588 -0.006005 1.517261
vn  -0.053588 -0.006005 1.517261
vn  -0.053588 -0.006005 1.517261
vn  -0.053721 -0.006005 1.517205
vn  -0.089676 -0.010456 2.424645
vn  -0.092716 -0.000003 1.477806
vn  -0.154147 -0.000074 1.296383
vn  -0.227845 -0.000286 -0.094985
vn  -0.059429 -0.000074 -1.385420
vn  0.012848 -0.000003 -1.511102
vn  0.085226 -0.014685 -2.425262
vn  0.052318 -0.007298 -1.517433
vn  0.053588 -0.006005 -1.517261
vn  0.053588 -0.006005 -1.517261
vn  0.053588 -0.006005 -1.517261
vn  0.054832 -0.007298 -1.516384
vn  0.086076 -0.014685 -2.424908
vn  0.092716 -0.000003 -1.477806
vn  0.154147 -0.000074 -1.296383
vn  0.227845 -0.000286 0.094985
vn  0.059429 -0.000074 1.385420
vn  -0.012848 -0.000003 1.511102
vn  -0.081712 -0.010456 2.427965
# 102 vertex normals

g Object08
s 2
f 399/593/399 400/594/400 401/595/401
f 401/595/401 402/596/402 399/593/399
f 402/596/402 401/595/401 403/597/403
f 403/597/403 404/598/404 402/596/402
f 404/598/404 403/597/403 405/599/405
f 405/599/405 406/600/406 404/598/404
s 16
f 406/601/406 405/602/405 477/711/477
f 477/711/477 478/712/478 406/601/406
f 405/602/405 409/605/409 500/739/500
f 500/739/500 477/711/477 405/602/405
s 64
f 411/607/411 400/608/400 493/731/493
f 493/731/493 494/732/494 411/607/411
f 400/608/400 399/611/399 492/730/492
f 492/730/492 493/731/493 400/608/400
f 415/613/415 491/729/491 492/730/492
f 492/730/492 399/611/399 415/613/415
s 2
f 400/594/400 411/615/411 417/616/417
f 411/615/411 418/617/418 417/616/417
f 419/618/419 420/619/420 417/616/417
f 417/616/417 418/617/418 419/618/419
f 401/595/401 400/594/400 417/616/417
f 420/619/420 401/595/401 417/616/417
f 401/595/401 420/619/420 421/620/421
f 419/618/419 422/621/422 421/620/421
f 421/620/421 420/619/420 419/618/419
f 423/622/423 424/623/424 421/620/421
f 421/620/421 422/621/422 423/622/423
f 403/597/403 401/595/401 421/620/421
f 424/623/424 403/597/403 421/620/421
f 403/597/403 424/623/424 425/624/425
f 423/622/423 426/625/426 425/624/425
f 425/624/425 424/623/424 423/622/423
f 409/626/409 405/599/405 425/624/425
f 426/625/426 409/626/409 425/624/425
f 405/599/405 403/597/403 425/624/425
s 32
f 409/627/409 426/628/426 427/629/427
f 423/630/423 428/631/428 427/629/427
f 427/629/427 426/628/426 423/630/423
f 498/737/498 499/738/499 427/629/427
f 427/629/427 428/631/428 498/737/498
f 500/634/500 409/627/409 427/629/427
f 499/738/499 500/740/500 427/629/427
f 423/630/423 422/635/422 431/636/431
f 431/636/431 428/631/428 423/630/423
f 419/637/419 432/638/432 431/636/431
f 431/636/431 422/635/422 419/637/419
f 496/735/496 497/736/497 431/636/431
f 431/636/431 432/638/432 496/735/496
f 498/737/498 428/631/428 431/636/431
f 431/636/431 497/736/497 498/737/498
f 419/637/419 418/641/418 435/642/435
f 435/642/435 432/638/432 419/637/419
f 411/643/411 494/644/494 435/642/435
f 418/641/418 411/643/411 435/642/435
f 494/733/494 495/734/495 435/642/435
f 496/735/496 432/638/432 435/642/435
f 435/642/435 495/734/495 496/735/496
s 2
f 399/593/399 402/596/402 437/647/437
f 437/647/437 415/646/415 399/593/399
f 402/596/402 404/598/404 438/648/438
f 438/648/438 437/647/437 402/596/402
f 404/598/404 406/600/406 439/649/439
f 439/649/439 438/648/438 404/598/404
s 16
f 406/601/406 478/712/478 479/714/479
f 479/714/479 439/650/439 406/601/406
s 2
f 441/652/441 442/653/442 443/654/443
f 443/654/443 444/655/444 441/652/441
f 442/653/442 445/656/445 446/657/446
f 446/657/446 443/654/443 442/653/442
f 445/656/445 447/658/447 448/659/448
f 448/659/448 446/657/446 445/656/445
s 16
f 447/660/447 480/715/480 481/716/481
f 481/716/481 448/663/448 447/660/447
f 448/663/448 481/716/481 482/717/482
f 482/717/482 452/665/452 448/663/448
s 64
f 453/666/453 488/724/488 489/726/489
f 489/726/489 444/669/444 453/666/453
f 444/669/444 489/726/489 490/727/490
f 490/727/490 441/671/441 444/669/444
f 415/673/415 441/671/441 490/727/490
f 490/727/490 491/728/491 415/673/415
s 2
f 444/655/444 457/674/457 453/675/453
f 453/675/453 457/674/457 458/676/458
f 459/677/459 458/676/458 457/674/457
f 457/674/457 460/678/460 459/677/459
f 443/654/443 457/674/457 444/655/444
f 460/678/460 457/674/457 443/654/443
f 443/654/443 461/679/461 460/678/460
f 459/677/459 460/678/460 461/679/461
f 461/679/461 462/680/462 459/677/459
f 463/681/463 462/680/462 461/679/461
f 461/679/461 464/682/464 463/681/463
f 446/657/446 461/679/461 443/654/443
f 464/682/464 461/679/461 446/657/446
f 446/657/446 465/683/465 464/682/464
f 463/681/463 464/682/464 465/683/465
f 465/683/465 466/684/466 463/681/463
f 452/685/452 465/683/465 448/659/448
f 466/684/466 465/683/465 452/685/452
f 448/659/448 465/683/465 446/657/446
s 32
f 452/686/452 467/687/467 466/688/466
f 463/689/463 466/688/466 467/687/467
f 467/687/467 468/690/468 463/689/463
f 484/720/484 468/690/468 467/687/467
f 467/687/467 483/719/483 484/720/484
f 482/693/482 467/687/467 452/686/452
f 483/719/483 467/687/467 482/718/482
f 463/689/463 468/690/468 471/694/471
f 471/694/471 462/695/462 463/689/463
f 459/696/459 462/695/462 471/694/471
f 471/694/471 472/697/472 459/696/459
f 486/722/486 472/697/472 471/694/471
f 471/694/471 485/721/485 486/722/486
f 484/720/484 485/721/485 471/694/471
f 471/694/471 468/690/468 484/720/484
f 459/696/459 472/697/472 475/700/475
f 475/700/475 458/701/458 459/696/459
f 453/702/453 475/700/475 488/703/488
f 458/701/458 475/700/475 453/702/453
f 488/725/488 475/700/475 487/723/487
f 486/722/486 487/723/487 475/700/475
f 475/700/475 472/697/472 486/722/486
s 2
f 441/652/441 415/705/415 437/706/437
f 437/706/437 442/653/442 441/652/441
f 442/653/442 437/706/437 438/707/438
f 438/707/438 445/656/445 442/653/442
f 445/656/445 438/707/438 439/708/439
f 439/708/439 447/658/447 445/656/445
s 16
f 447/660/447 439/709/439 479/713/479
f 479/713/479 480/715/480 447/660/447
s 0
f 407/603/407 408/604/408 478/712/478
f 478/712/478 477/711/477 407/603/407
f 408/604/408 440/651/440 479/714/479
f 479/714/479 478/712/478 408/604/408
f 440/710/440 449/661/449 480/715/480
f 480/715/480 479/713/479 440/710/440
f 449/661/449 450/662/450 481/716/481
f 481/716/481 480/715/480 449/661/449
f 450/662/450 451/664/451 482/717/482
f 482/717/482 481/716/481 450/662/450
f 451/693/451 470/692/470 483/719/483
f 483/719/483 482/718/482 451/693/451
f 470/692/470 469/691/469 484/720/484
f 484/720/484 483/719/483 470/692/470
f 469/691/469 474/699/474 485/721/485
f 485/721/485 484/720/484 469/691/469
f 474/699/474 473/698/473 486/722/486
f 486/722/486 485/721/485 474/699/474
f 473/698/473 476/704/476 487/723/487
f 487/723/487 486/722/486 473/698/473
f 476/704/476 454/703/454 488/725/488
f 488/725/488 487/723/487 476/704/476
f 454/667/454 455/668/455 489/726/489
f 489/726/489 488/724/488 454/667/454
f 455/668/455 456/670/456 490/727/490
f 490/727/490 489/726/489 455/668/455
f 456/670/456 416/672/416 491/728/491
f 491/728/491 490/727/490 456/670/456
f 416/614/416 414/612/414 492/730/492
f 492/730/492 491/729/491 416/614/416
f 414/612/414 412/609/412 493/731/493
f 493/731/493 492/730/492 414/612/414
f 412/609/412 413/610/413 494/732/494
f 494/732/494 493/731/493 412/609/412
f 413/644/413 436/645/436 495/734/495
f 495/734/495 494/733/494 413/644/413
f 436/645/436 433/639/433 496/735/496
f 496/735/496 495/734/495 436/645/436
f 433/639/433 434/640/434 497/736/497
f 497/736/497 496/735/496 433/639/433
f 434/640/434 429/632/429 498/737/498
f 498/737/498 497/736/497 434/640/434
f 429/632/429 430/633/430 499/738/499
f 499/738/499 498/737/498 429/632/429
f 430/633/430 410/634/410 500/740/500
f 500/740/500 499/738/499 430/633/430
f 410/606/410 407/603/407 477/711/477
f 477/711/477 500/739/500 410/606/410
# 178 faces

g
